<?xml version="1.0" standalone="no"?>
<!DOCTYPE svg PUBLIC "-//W3C//DTD SVG 20010904//EN"
 "http://www.w3.org/TR/2001/REC-SVG-20010904/DTD/svg10.dtd">
<svg version="1.0" xmlns="http://www.w3.org/2000/svg"
 width="600.000000pt" height="600.000000pt" viewBox="0 0 600.000000 600.000000"
 preserveAspectRatio="xMidYMid meet">
<metadata>
Created by potrace 1.14, written by Peter Selinger 2001-2017
</metadata>
<g transform="translate(0.000000,600.000000) scale(0.100000,-0.100000)"
fill="#000000" stroke="none">
<path d="M2848 5973 c6 -2 18 -2 25 0 6 3 1 5 -13 5 -14 0 -19 -2 -12 -5z"/>
<path d="M2788 5965 c-3 -3 -27 -8 -54 -12 -56 -6 -64 -10 -44 -23 12 -8 10
-10 -7 -10 -13 0 -23 5 -23 10 0 16 -46 12 -60 -5 -7 -8 -25 -15 -41 -15 -16
0 -37 -4 -47 -9 -9 -5 -30 -15 -47 -22 -16 -7 -42 -21 -57 -31 -22 -15 -29
-16 -40 -5 -7 8 -20 12 -28 10 -24 -7 21 27 58 43 18 8 37 12 41 9 5 -3 24 2
42 10 l34 16 -45 -7 c-25 -4 -63 -13 -85 -21 -78 -27 -192 -53 -266 -59 -158
-13 -511 -171 -774 -347 -304 -203 -579 -468 -785 -757 -236 -331 -416 -742
-495 -1134 -46 -230 -58 -356 -58 -606 0 -495 95 -899 314 -1340 296 -593 759
-1053 1354 -1345 439 -216 836 -308 1325 -308 477 -1 878 91 1305 297 405 196
747 467 1020 811 17 20 42 51 56 68 15 17 32 48 38 69 7 21 16 38 21 38 6 0
10 9 10 20 0 10 8 23 17 29 10 5 15 13 11 16 -11 11 20 37 33 29 8 -4 9 -3 5
5 -4 6 -1 13 6 16 8 3 15 18 16 33 1 15 10 33 19 40 9 6 14 12 10 12 -4 0 0
11 9 25 9 14 14 32 10 40 -3 8 0 14 6 12 10 -2 26 42 30 80 1 7 6 11 11 10 16
-3 25 45 14 70 -6 13 -17 23 -24 23 -8 0 -12 4 -9 8 2 4 -4 9 -15 9 -11 1 -17
-2 -14 -7 3 -4 -2 -11 -11 -14 -9 -3 -12 -2 -9 4 9 15 -4 68 -22 86 -8 8 -12
18 -8 22 3 4 11 -1 16 -11 15 -26 30 -21 23 8 -8 31 3 33 16 3 6 -17 9 -18 9
-6 1 9 7 18 14 21 6 2 4 3 -5 2 -21 -4 -23 6 -6 23 7 7 9 12 5 12 -4 0 -3 10
4 21 9 17 8 20 -3 17 -7 -3 -14 -13 -14 -24 -3 -37 -4 -39 -14 -24 -6 10 -3
24 9 45 10 16 16 36 14 43 -7 19 17 62 34 62 7 0 13 -4 13 -10 0 -5 -6 -10
-14 -10 -19 0 -9 -81 13 -97 14 -11 14 -14 1 -23 -8 -5 -10 -10 -4 -10 6 0 19
9 28 19 16 18 16 19 -1 17 -12 0 -19 7 -21 23 -2 15 0 21 7 16 6 -3 33 17 60
44 28 28 54 51 60 51 6 0 11 7 11 15 0 22 -27 18 -33 -5 -3 -11 -10 -20 -15
-20 -16 0 -9 34 10 48 33 24 47 70 43 135 -7 87 -14 114 -30 114 -19 0 -19 -2
1 -22 19 -19 11 -45 -16 -52 -11 -3 -20 -10 -20 -17 -1 -6 -10 0 -20 13 -18
21 -20 21 -21 5 0 -11 -3 -14 -5 -7 -3 6 3 24 12 40 10 16 12 23 4 15 -40 -35
-49 12 -10 53 13 14 20 28 17 32 -4 3 -7 1 -7 -6 0 -7 -5 -9 -10 -6 -6 4 -9 1
-8 -5 2 -7 -5 -17 -15 -23 -14 -10 -20 -9 -27 3 -8 12 -9 11 -7 -5 2 -11 9
-33 16 -50 20 -51 21 -55 8 -52 -7 1 -11 -7 -9 -22 3 -16 0 -21 -8 -16 -8 5
-10 20 -7 41 8 45 -10 34 -19 -11 -3 -19 -10 -35 -15 -35 -5 0 -9 -5 -9 -11 0
-6 9 -8 20 -4 11 4 20 3 19 -2 -4 -22 2 -43 11 -38 6 4 7 -1 3 -12 -6 -16 -5
-16 10 -4 10 8 17 9 17 3 0 -6 -4 -14 -10 -17 -15 -9 -12 -27 3 -19 10 6 10 4
0 -7 -15 -16 -17 -33 -3 -24 6 3 15 3 21 -1 7 -4 2 -11 -13 -18 -28 -15 -39 3
-30 48 3 19 1 27 -5 23 -6 -4 -14 0 -17 9 -4 9 -13 14 -21 10 -8 -3 -15 -1
-15 4 0 6 9 10 20 10 11 0 20 5 20 11 0 6 -6 9 -14 6 -28 -11 -36 17 -16 51
11 18 20 45 19 60 0 23 -2 24 -8 8 -7 -19 -8 -19 -14 -1 -4 10 -5 26 -2 36 10
29 -2 22 -19 -11 -8 -17 -11 -28 -7 -25 5 2 13 -7 20 -21 14 -32 14 -31 -5
-38 -11 -4 -15 -2 -11 8 4 10 1 13 -7 10 -21 -8 -28 37 -9 58 20 22 5 23 -25
2 -31 -21 -39 -11 -12 14 12 11 23 37 26 57 l5 38 -20 -24 -20 -24 5 25 c4 17
3 21 -3 12 -5 -7 -17 -10 -26 -7 -11 5 -20 -3 -32 -27 -13 -27 -13 -29 -1 -14
8 10 17 23 19 29 5 16 27 -2 27 -21 0 -9 -10 -37 -21 -62 -12 -28 -16 -46 -10
-48 6 -2 11 -13 11 -25 0 -16 -3 -18 -12 -9 -6 6 -11 25 -11 41 0 17 -6 32
-13 35 -8 3 -11 0 -7 -10 3 -7 0 -14 -6 -14 -7 0 -7 -8 0 -27 8 -22 7 -30 -7
-40 -10 -7 -14 -13 -10 -13 5 0 3 -7 -4 -15 -11 -13 -16 -13 -42 1 -25 13 -29
19 -23 42 9 38 -8 18 -22 -26 -11 -33 -12 -33 -9 -7 3 17 8 39 12 49 6 15 4
17 -7 11 -12 -8 -12 -6 0 8 12 15 12 17 -4 10 -15 -5 -17 -3 -12 11 4 10 7 20
7 22 0 2 6 4 14 4 8 0 18 5 22 12 5 8 2 9 -11 4 -15 -5 -16 -4 -5 9 7 8 9 22
6 31 -4 10 1 25 10 36 20 21 11 37 -11 18 -8 -7 -15 -8 -15 -3 0 5 -18 15 -40
22 -22 7 -38 16 -35 21 4 6 14 5 25 -2 25 -16 33 -6 34 37 1 19 4 35 9 35 4 0
7 -5 7 -12 0 -6 2 -9 5 -7 2 3 2 15 -2 28 -4 16 -8 19 -14 10 -4 -8 -11 -10
-16 -6 -4 4 -1 17 6 29 10 16 10 19 -1 16 -7 -3 -17 -19 -22 -36 -5 -18 -13
-32 -18 -32 -5 0 -7 -4 -3 -10 3 -5 12 -7 20 -3 8 3 15 2 15 -2 0 -11 -24 -30
-40 -30 -8 0 -16 -10 -18 -22 -3 -19 1 -23 24 -23 25 0 26 -2 21 -35 -3 -19
-2 -35 4 -35 5 0 9 5 9 12 0 6 3 9 6 5 3 -3 1 -14 -5 -24 -6 -10 -11 -14 -11
-8 0 5 -9 -7 -20 -28 -24 -44 -27 -82 -6 -74 11 4 13 1 9 -10 -5 -13 -2 -15
15 -11 18 5 20 3 13 -10 -12 -25 -13 -99 -1 -107 15 -9 12 -25 -6 -25 -8 0
-12 5 -9 10 3 6 1 10 -5 10 -7 0 -9 8 -4 22 6 20 5 21 -10 9 -12 -10 -13 -17
-6 -26 8 -9 8 -14 0 -17 -14 -4 4 -58 20 -58 5 0 10 -10 11 -22 1 -18 3 -16
10 10 5 17 12 32 15 32 3 0 2 -10 -2 -22 -6 -20 -5 -21 10 -9 9 7 16 10 16 6
0 -8 -24 -29 -52 -45 -13 -8 -15 -6 -11 10 4 15 0 20 -14 20 -13 0 -19 8 -21
27 -1 15 -7 32 -14 38 -8 7 -9 6 -4 -2 9 -15 -3 -17 -24 -3 -8 5 -10 10 -4 10
7 0 14 9 17 20 3 11 1 20 -4 20 -14 0 13 39 31 44 9 2 6 4 -7 5 -14 1 -23 7
-23 17 0 9 -5 12 -12 8 -9 -5 -8 -2 1 9 12 15 12 22 1 41 -7 13 -9 29 -6 35 4
6 2 11 -3 11 -15 0 -18 -73 -6 -153 3 -22 1 -37 -5 -37 -6 0 -8 12 -5 29 3 21
0 31 -11 35 -9 4 -14 13 -10 21 4 10 -3 19 -19 25 -14 5 -25 15 -25 22 0 9 3
9 8 2 13 -19 42 -25 42 -8 0 8 -7 17 -15 20 -8 4 -15 11 -15 16 0 6 7 5 15 -2
9 -7 19 -9 23 -5 4 4 2 10 -4 12 -7 2 -10 13 -7 24 4 12 11 18 20 15 8 -3 11
-2 8 4 -3 5 4 14 16 20 11 7 18 14 15 17 -3 4 -15 -2 -26 -12 -22 -20 -22 -19
-24 45 0 25 4 48 9 53 6 4 5 10 -3 16 -16 10 -33 69 -39 136 -3 36 1 61 16 90
18 37 18 41 3 58 -9 10 -24 16 -33 14 -12 -3 -16 0 -12 9 3 8 1 14 -5 14 -20
0 -22 -32 -4 -58 10 -15 22 -34 27 -42 6 -12 5 -13 -6 -2 -19 17 -28 15 -39
-10 -8 -22 -9 -22 -9 4 -1 15 4 30 9 33 15 9 1 27 -16 21 -11 -4 -13 1 -8 19
9 36 -3 31 -20 -7 -8 -18 -15 -27 -15 -20 -1 7 -6 10 -11 7 -6 -4 -9 -1 -8 7
2 7 -2 12 -9 11 -6 -2 -15 6 -18 17 -7 21 -35 28 -35 9 0 -5 4 -7 10 -4 6 3 7
-1 4 -9 -3 -9 -10 -14 -14 -11 -4 3 -11 -6 -14 -20 -6 -24 -36 -36 -36 -15 0
6 -5 10 -11 10 -5 0 -8 -4 -5 -8 2 -4 1 -14 -5 -22 -7 -13 -9 -13 -9 0 -1 12
-3 11 -11 -2 -14 -25 -19 -77 -8 -83 15 -10 10 -52 -6 -59 -8 -3 -15 -12 -15
-19 0 -8 -6 -20 -14 -26 -7 -6 -16 -25 -20 -42 -7 -36 -46 -91 -46 -65 0 9 -8
16 -20 16 -13 0 -20 7 -20 19 0 20 28 24 43 6 5 -6 7 -4 4 5 -2 8 -9 14 -15
13 -6 -2 -9 4 -6 12 8 19 14 19 30 -2 12 -17 13 -17 14 -1 0 9 9 32 20 51 16
27 19 42 12 72 -4 21 -13 40 -20 43 -7 2 -11 0 -10 -5 2 -4 0 -9 -5 -10 -17
-6 -27 -2 -27 13 0 8 5 12 10 9 6 -3 10 -1 10 5 0 8 -9 10 -22 7 -24 -6 -63
15 -51 26 15 16 65 6 91 -18 15 -14 31 -25 37 -25 5 0 -5 13 -24 29 -22 18
-32 34 -28 43 3 9 0 21 -6 27 -8 8 -8 14 1 23 7 7 12 19 12 27 0 11 -3 12 -8
5 -4 -6 -17 -14 -30 -18 -20 -7 -21 -5 -12 18 6 17 6 27 -1 32 -5 3 -8 11 -6
17 2 7 0 20 -5 30 -7 14 -5 24 8 38 9 10 13 19 7 19 -12 0 -47 -38 -63 -70
l-13 -25 23 20 23 20 -11 -21 c-16 -30 -39 -47 -47 -34 -3 5 -3 16 1 23 5 8 2
7 -9 -2 -10 -8 -16 -19 -14 -24 2 -6 -5 -19 -16 -30 -19 -19 -20 -19 -64 29
-25 27 -59 66 -76 87 -17 20 -37 37 -43 37 -17 0 -24 26 -11 39 8 8 5 11 -11
11 -12 0 -22 -5 -22 -11 0 -5 -5 -7 -11 -3 -8 4 -9 0 -4 -15 10 -32 -1 -26
-30 16 -21 32 -25 34 -25 16 0 -12 -8 -26 -17 -31 -14 -8 -13 -12 13 -26 45
-24 76 -54 69 -66 -3 -6 -11 -7 -18 -3 -6 3 -1 -9 11 -29 12 -19 18 -39 14
-43 -4 -5 1 -5 12 -1 14 5 17 3 12 -10 -4 -10 3 -23 19 -36 16 -13 25 -29 25
-49 0 -33 15 -39 23 -9 3 13 11 18 20 14 9 -3 25 -1 36 6 17 9 21 8 21 -5 0
-9 -4 -14 -9 -11 -5 3 -11 -1 -15 -9 -6 -18 2 -45 15 -45 5 0 7 -20 4 -45 -5
-37 -3 -44 10 -39 8 3 15 1 15 -5 0 -6 5 -11 11 -11 6 0 9 9 6 20 -3 11 -2 20
3 20 15 0 19 -29 9 -62 -5 -18 -9 -34 -9 -35 0 -1 7 0 15 3 11 5 14 1 9 -12
-4 -15 -1 -14 15 5 12 13 21 18 21 12 0 -6 11 -17 25 -23 29 -13 33 -28 8 -26
-40 3 -50 -2 -50 -26 0 -19 6 -26 28 -31 35 -8 30 -21 -10 -27 -17 -2 -28 -1
-25 4 3 4 -1 8 -9 8 -11 0 -13 9 -7 40 4 22 3 40 -1 40 -5 0 -9 -16 -9 -35 0
-28 -3 -33 -17 -28 -12 5 -9 -4 12 -33 15 -22 35 -40 44 -41 49 -4 56 -8 58
-31 l1 -25 -24 27 c-29 31 -50 35 -34 7 10 -20 4 -51 -10 -51 -5 0 -6 9 -3 20
6 21 -37 84 -90 133 -17 15 -27 30 -23 34 4 4 10 3 14 -3 12 -18 62 -24 62 -7
0 10 -6 12 -19 8 -23 -7 -29 1 -35 50 -6 45 -12 53 -29 35 -8 -9 -9 -11 0 -6
7 4 11 -1 10 -13 -1 -15 -4 -17 -14 -9 -9 7 -13 7 -13 0 0 -6 8 -15 17 -21 10
-5 15 -13 11 -17 -4 -4 -15 -1 -23 6 -17 14 -14 72 3 78 6 2 6 18 1 39 -4 21
-4 44 2 54 6 11 5 20 -1 24 -5 3 -10 1 -10 -4 0 -6 -6 -11 -14 -11 -8 0 -17
-11 -20 -25 -4 -14 -10 -24 -14 -21 -4 2 -7 -11 -7 -30 1 -19 -2 -34 -6 -34
-5 0 -6 -13 -3 -29 9 -41 -9 -45 -37 -8 -13 18 -24 34 -24 37 0 3 -4 10 -8 17
-4 6 -4 19 -1 27 4 10 -1 25 -11 36 -9 10 -15 25 -12 32 4 9 6 7 6 -4 1 -9 11
-18 24 -20 15 -2 21 -9 20 -23 -1 -11 3 -23 9 -26 7 -4 6 -13 -1 -28 -12 -21
-5 -27 14 -13 14 9 17 55 4 46 -11 -6 -2 41 12 66 7 12 8 12 9 1 0 -8 3 -12 6
-9 11 11 -20 89 -39 99 -23 13 -24 11 -31 -25 -8 -44 -16 -44 -18 0 0 21 -2
45 -2 52 -1 7 -16 26 -34 44 -24 21 -30 33 -22 38 7 4 9 13 6 19 -9 15 7 14
22 -1 6 -6 14 -9 17 -6 7 6 -55 45 -70 44 -5 -1 -8 -5 -6 -11 7 -19 6 -85 -2
-85 -4 0 -10 14 -13 30 -4 17 -11 30 -16 30 -6 0 -8 8 -5 19 3 14 0 17 -14 14
-11 -3 -19 0 -19 6 0 7 5 9 12 5 8 -5 9 -2 5 9 -7 20 13 23 30 6 9 -9 10 -7 6
10 -3 11 -9 21 -14 21 -5 0 -9 7 -9 15 0 8 -3 15 -7 16 -5 0 -17 2 -29 3 -17
2 -19 -2 -16 -26 5 -36 -11 -36 -47 1 l-29 29 2 -28 c0 -16 -3 -28 -9 -27 -5
1 -10 14 -9 30 0 15 -3 27 -7 27 -15 0 -17 -16 -5 -51 10 -29 10 -42 1 -59
l-12 -23 -23 26 c-13 15 -27 27 -31 27 -13 0 3 -44 24 -67 11 -13 17 -23 12
-23 -5 0 0 -7 11 -15 10 -8 15 -15 10 -15 -5 0 -3 -7 4 -15 7 -8 8 -15 3 -15
-13 0 -63 54 -63 68 0 7 -6 15 -14 18 -10 4 -13 15 -9 40 4 27 2 34 -11 34
-10 0 -16 9 -16 24 0 14 -5 28 -11 32 -8 4 -7 9 2 15 8 4 14 14 14 21 0 7 11
13 23 12 18 -1 22 4 19 18 -3 10 -1 21 4 24 15 9 10 22 -7 20 -9 0 -18 5 -20
12 -1 7 0 8 3 2 2 -5 9 -8 14 -4 13 7 1 24 -17 24 -8 0 -14 -7 -14 -15 0 -8
-10 -19 -21 -26 -15 -8 -19 -8 -15 0 8 13 -18 43 -28 33 -4 -3 -4 1 0 11 4 11
13 16 24 12 10 -3 21 -1 25 5 3 5 -2 10 -11 10 -38 0 3 20 45 22 36 1 42 4 38
20 -3 10 -1 18 4 18 9 0 13 -14 10 -36 -1 -7 5 -14 14 -18 8 -3 15 -1 15 4 0
6 -5 10 -11 10 -8 0 -8 5 1 15 9 11 10 15 1 15 -8 0 -10 8 -6 21 5 14 3 19 -3
15 -6 -3 -13 -2 -17 4 -10 16 22 12 39 -6 9 -8 19 -13 23 -11 5 3 8 -14 8 -36
0 -23 4 -48 10 -56 8 -12 6 -13 -7 -8 -13 5 -18 1 -18 -12 0 -11 -2 -25 -5
-33 -3 -8 4 -14 20 -15 55 -5 65 -8 65 -14 0 -4 -9 -11 -20 -14 -27 -9 -25
-23 3 -21 17 1 23 8 24 30 1 16 -2 37 -8 47 -7 13 -6 19 1 19 6 0 16 -11 22
-25 10 -23 13 -24 29 -9 11 10 19 12 24 5 11 -19 33 -12 28 8 -4 16 -1 19 16
14 12 -3 21 -12 21 -21 0 -13 2 -13 13 2 13 18 14 18 20 2 4 -10 5 -22 1 -27
-3 -5 0 -9 6 -9 17 0 24 29 11 44 -8 10 -9 16 -1 21 5 3 10 1 10 -6 0 -7 6 -4
14 6 8 11 12 24 9 29 -4 5 -1 6 5 3 5 -4 8 -15 5 -26 -3 -10 3 -33 11 -50 25
-48 26 -46 12 52 -3 21 -8 42 -11 47 -3 6 -2 10 4 10 5 0 15 -8 20 -17 9 -15
12 -16 20 -4 5 7 14 10 20 7 6 -4 11 0 11 10 0 9 11 27 25 39 16 16 23 31 20
46 -2 12 0 29 6 38 8 13 9 11 4 -7 -4 -14 -1 -24 8 -28 8 -3 13 -16 11 -29 -1
-14 3 -28 8 -31 7 -5 9 2 4 19 -3 14 -2 28 4 32 5 3 6 13 3 22 -5 13 -2 15 12
10 17 -7 17 -6 0 20 -15 23 -16 26 -2 15 21 -17 37 -7 37 22 0 23 28 56 47 56
6 0 16 7 23 15 9 10 9 15 1 15 -6 0 -11 5 -11 10 0 6 6 10 13 10 19 0 50 37
42 49 -10 18 -25 12 -25 -9 0 -14 -7 -20 -22 -20 -17 0 -19 3 -9 9 8 5 14 24
15 42 0 19 8 40 16 47 13 10 13 11 -2 6 -16 -6 -23 4 -19 29 2 11 -17 9 -24
-3 -3 -5 -11 -10 -16 -10 -6 0 -8 4 -5 9 3 5 -1 12 -9 15 -8 3 -14 10 -13 17
4 17 -33 37 -39 22 -3 -7 -12 -13 -21 -13 -15 1 -15 2 2 15 17 13 17 15 3 29
-21 21 -26 20 -20 -4 4 -15 0 -20 -15 -20 -12 0 -24 -4 -27 -10 -3 -5 -13 -10
-22 -10 -9 0 -14 3 -10 6 3 3 -9 18 -26 34 -32 28 -32 29 -14 58 23 40 21 53
-3 22 -17 -21 -20 -22 -20 -7 0 11 9 30 20 45 15 18 17 28 9 33 -7 4 -9 14 -6
23 3 8 2 18 -3 21 -5 3 -12 -5 -16 -17 -7 -22 -7 -22 -14 -3 -4 11 -3 23 4 27
11 8 5 10 -36 12 -10 1 -17 6 -17 11 0 13 59 18 59 4 0 -5 4 -8 9 -4 9 5 24
-24 26 -50 2 -25 75 30 75 56 0 11 -32 46 -37 41 -8 -8 -19 5 -34 38 -9 19
-22 47 -29 62 -15 32 -6 68 12 50 15 -15 62 -16 53 -1 -4 6 -13 8 -21 5 -8 -3
-24 0 -34 7 -21 12 -27 37 -10 37 6 0 10 -4 10 -9 0 -5 9 -7 20 -4 11 3 17 9
14 14 -3 5 3 9 13 10 10 0 13 3 6 5 -7 3 -20 1 -30 -5 -22 -11 -45 0 -41 20 2
8 -4 13 -14 13 -22 -2 -24 14 -2 23 8 3 13 11 10 19 -7 18 12 31 57 39 37 7
46 18 27 30 -5 3 -10 1 -10 -5 0 -7 -6 -10 -14 -7 -7 3 -18 1 -24 -5 -6 -6 -9
-1 -9 16 0 26 11 34 22 16 3 -5 16 -8 28 -6 33 7 34 7 7 15 -14 4 -30 18 -37
31 -6 13 -19 27 -27 32 -13 7 -13 12 -3 22 8 10 16 11 25 4 6 -6 12 -7 12 -2
0 5 5 2 10 -6 8 -12 12 -12 18 -2 5 7 21 19 35 27 23 12 25 11 20 -3 -5 -13
-3 -14 7 -5 14 13 7 43 -10 43 -5 0 -10 -7 -10 -15 0 -17 -16 -20 -25 -4 -4 6
1 17 11 24 18 13 18 14 2 15 -10 0 -19 5 -19 10 -1 6 -2 15 -3 20 0 6 -7 14
-14 19 -7 4 -12 12 -11 17 1 5 0 11 -1 14 -9 24 -6 40 8 40 12 0 13 3 4 12
-17 17 -44 -9 -37 -36 5 -19 5 -19 -5 -3 -9 13 -9 22 0 32 6 8 9 19 5 25 -4 6
-2 17 4 24 8 10 7 16 -3 25 -17 14 -60 5 -51 -10 4 -5 1 -9 -5 -9 -7 0 -9 8
-5 22 6 17 4 20 -10 14 -19 -7 -58 21 -49 35 3 5 0 9 -5 9 -6 0 -11 12 -11 26
0 14 -4 23 -9 19 -5 -3 -13 0 -16 6 -4 5 -13 8 -21 5 -7 -3 -18 3 -24 13 -5
10 -16 21 -25 25 -12 4 -14 0 -9 -19 4 -15 2 -25 -5 -25 -6 0 -11 3 -12 8 0 4
-2 17 -5 30 -3 17 1 22 19 22 19 1 20 2 6 13 -8 7 -21 21 -28 32 -7 11 -10 13
-8 5 2 -8 -1 -20 -7 -26 -13 -13 -38 -1 -81 39 -26 25 -30 26 -35 11 -6 -16
-7 -16 -13 -1 -4 10 -2 17 4 17 6 0 8 7 5 16 -5 13 -4 14 7 5 11 -8 22 -7 48
4 19 9 24 14 12 11 -15 -2 -23 1 -23 9 0 10 -14 13 -57 11 -83 -5 -85 -5 -78
-16 3 -5 1 -10 -4 -10 -6 0 -11 4 -11 9 0 5 -10 13 -22 16 -33 9 -88 38 -88
46 0 4 -10 9 -23 13 -12 3 -31 14 -42 24 -11 10 -28 21 -38 25 -10 4 -16 11
-13 15 3 5 -6 7 -19 4 -14 -2 -25 -8 -25 -12 0 -4 -9 -10 -20 -13 -24 -6 -27
8 -4 17 25 10 10 31 -22 32 -16 1 -38 4 -49 8 l-20 8 20 -17 c12 -9 29 -14 43
-10 12 3 22 1 22 -5 0 -5 -6 -10 -14 -10 -8 0 -16 -7 -20 -15 -8 -21 -25 -19
-47 7 -11 11 -19 17 -19 12 0 -6 5 -15 12 -22 9 -9 8 -15 -8 -26 -16 -13 -20
-13 -27 0 -10 18 -32 18 -51 -2 -14 -14 -16 -14 -16 0 0 11 -10 15 -35 14 -19
-1 -35 -5 -35 -10 0 -4 5 -8 10 -8 6 0 10 -4 10 -10 0 -17 -18 -11 -25 9 -3
10 -11 18 -18 18 -58 -2 -86 4 -81 17 3 9 14 13 27 9 43 -10 62 -8 59 6 -5 22
18 42 37 32 30 -16 85 -7 121 20 19 14 42 30 50 34 12 7 13 6 3 -6 -11 -13 -9
-18 11 -29 13 -7 30 -10 38 -7 9 4 7 6 -4 6 -25 1 -23 18 3 26 20 7 20 7 2 27
-18 20 -17 20 17 17 39 -3 63 -17 54 -30 -3 -5 4 -9 15 -9 19 0 20 2 9 21 -10
17 -10 23 0 26 6 3 12 16 12 29 0 13 5 24 11 24 5 0 7 5 4 10 -5 8 -11 7 -21
-1 -11 -9 -14 -8 -14 5 0 21 -33 21 -81 -1 -30 -14 -37 -22 -33 -37 5 -14 3
-16 -7 -10 -8 5 -24 7 -36 5 -17 -2 -21 2 -17 13 3 8 11 13 19 10 7 -3 19 1
27 9 8 8 33 23 56 34 42 19 42 19 22 38 -18 16 -22 17 -37 3 -10 -9 -32 -19
-49 -22 -28 -6 -32 -4 -36 18 -3 15 0 27 8 30 8 3 14 -1 14 -9 0 -8 5 -15 10
-15 6 0 10 7 10 15 0 8 5 15 11 15 5 0 7 -5 4 -10 -7 -11 23 -9 42 3 22 14 -7
45 -50 51 -21 4 -52 13 -68 22 -16 8 -35 12 -42 8 -7 -4 -9 -3 -4 1 10 12 -32
55 -48 49 -7 -3 -16 -1 -20 5 -3 7 3 11 16 11 20 0 20 2 7 22 -17 26 -78 35
-78 12 0 -17 -12 -18 -26 -4 -8 8 -33 7 -82 -1 -70 -12 -72 -11 -91 12 -10 13
-17 28 -14 33 4 5 12 1 20 -9 14 -20 89 -30 108 -15 6 5 31 9 55 10 121 3 148
6 143 14 -3 5 -33 6 -66 3 -37 -3 -77 0 -105 8 -26 8 -49 11 -52 7 -4 -7 -120
-11 -120 -5 0 1 4 13 9 26 10 26 110 87 142 87 10 0 21 5 24 10 3 6 -2 10 -11
10 -20 0 -136 -40 -144 -49 -15 -19 -72 -51 -80 -46 -6 3 -10 -1 -10 -10 0
-12 5 -15 16 -11 14 5 15 4 5 -8 -7 -8 -20 -14 -29 -14 -9 0 -25 -3 -34 -7
-13 -5 -18 -3 -18 9 0 9 8 16 17 16 9 0 13 3 10 7 -4 3 1 12 11 20 15 13 15
13 -8 7 -14 -4 -32 -9 -40 -11 -8 -3 2 6 24 19 31 20 35 26 22 31 -10 4 -28 0
-42 -9 -14 -10 -36 -14 -54 -12 -16 3 -30 1 -30 -4 0 -5 -16 3 -35 18 -40 30
-42 39 -17 67 16 19 16 20 -6 8 -12 -6 -30 -11 -39 -9 -10 2 -18 -3 -18 -12 0
-8 -12 -28 -28 -44 -18 -20 -24 -32 -16 -36 8 -6 8 -9 0 -14 -6 -4 -11 -2 -11
3 0 6 -5 11 -10 11 -7 0 -7 -8 1 -22 12 -23 12 -23 -10 -4 l-21 19 21 15 c11
8 18 20 15 28 -3 8 -1 14 5 14 5 0 15 14 20 30 6 17 17 30 24 30 8 0 17 5 21
11 4 8 -1 9 -17 5 -23 -7 -23 -6 -5 8 11 9 34 19 53 22 18 3 33 10 33 14 0 17
-108 -24 -111 -42 -1 -5 -2 -14 -3 -20 0 -7 -14 -17 -29 -22 -36 -13 -54 9
-30 36 11 12 12 18 4 18 -26 0 1 17 56 36 32 10 61 23 65 29 4 5 36 10 72 10
35 0 59 3 54 6 -16 10 2 16 76 24 50 5 71 4 76 -5 4 -7 13 -9 20 -5 44 27
-125 46 -230 25 -48 -9 -77 -2 -44 11 14 6 15 8 3 8 -9 1 -18 -1 -21 -4z
m-333 -135 c-3 -5 -13 -10 -21 -10 -8 0 -12 5 -9 10 3 6 13 10 21 10 8 0 12
-4 9 -10z m-60 -20 c-3 -5 -14 -10 -23 -10 -15 0 -15 2 -2 10 20 13 33 13 25
0z m245 6 c0 -3 -4 -8 -10 -11 -5 -3 -10 -1 -10 4 0 6 5 11 10 11 6 0 10 -2
10 -4z m30 -67 c0 -4 -9 -13 -20 -19 -11 -6 -18 -15 -15 -20 3 -5 1 -11 -5
-15 -14 -9 -23 20 -16 49 5 19 11 22 31 18 14 -2 25 -8 25 -13z m114 -1 c-4
-7 -13 -20 -21 -30 -10 -11 -11 -18 -4 -23 6 -3 11 1 11 9 0 24 18 28 45 10
30 -20 32 -29 5 -31 -11 -1 -20 2 -20 8 0 5 -5 9 -11 9 -6 0 -9 -6 -7 -12 3
-7 22 -15 44 -18 l39 -6 -56 -18 c-53 -18 -58 -18 -80 -2 -22 15 -22 16 -4 17
11 1 29 1 40 0 13 0 9 4 -12 14 -37 17 -41 28 -18 47 9 7 21 18 28 25 16 16
30 16 21 1z m-408 -20 c19 -6 36 -18 38 -25 6 -15 -10 -18 -19 -3 -4 6 -16 8
-27 4 -19 -6 -37 8 -38 29 0 10 8 9 46 -5z m-41 -48 c3 -5 1 -10 -4 -10 -6 0
-11 5 -11 10 0 6 2 10 4 10 3 0 8 -4 11 -10z m575 -23 c0 -7 10 -24 21 -36
l22 -23 -22 7 c-11 3 -21 2 -21 -3 0 -22 -62 -19 -89 4 -8 7 41 44 50 38 5 -3
12 2 15 10 7 19 24 21 24 3z m-536 -12 c-4 -9 -18 -15 -38 -14 -21 1 -24 3
-11 6 11 3 24 9 30 14 14 14 25 11 19 -6z m46 5 c-8 -5 -19 -10 -25 -10 -5 0
-3 5 5 10 8 5 20 10 25 10 6 0 3 -5 -5 -10z m530 -10 c0 -5 -4 -10 -10 -10 -5
0 -10 5 -10 10 0 6 5 10 10 10 6 0 10 -4 10 -10z m-660 -20 c-20 -13 -53 -13
-45 0 3 6 18 10 33 10 21 0 24 -2 12 -10z m87 -16 c-3 -3 -12 -4 -19 -1 -8 3
-5 6 6 6 11 1 17 -2 13 -5z m703 -28 c-7 -7 -13 -7 -20 0 -6 6 -3 10 10 10 13
0 16 -4 10 -10z m-612 -29 c8 -9 -2 -13 -46 -14 l-57 -2 40 14 c51 17 51 17
63 2z m589 -14 c-4 -3 -3 -11 3 -17 6 -8 3 -12 -10 -12 -12 0 -18 7 -17 18 1
10 8 18 16 18 8 0 11 -3 8 -7z m43 -9 c0 -2 -7 -4 -15 -4 -8 0 -15 4 -15 10 0
5 7 7 15 4 8 -4 15 -8 15 -10z m120 2 c0 -3 -4 -8 -10 -11 -5 -3 -10 -1 -10 4
0 6 5 11 10 11 6 0 10 -2 10 -4z m166 -33 c-3 -8 -1 -11 4 -8 5 3 7 0 4 -8 -6
-18 47 -71 56 -56 7 11 40 2 40 -11 0 -5 3 -15 6 -24 11 -30 -54 3 -109 55
-47 45 -50 51 -35 63 10 7 14 17 10 22 -4 4 1 2 11 -5 10 -8 16 -20 13 -28z
m-212 11 c24 -24 19 -30 -6 -8 -13 10 -25 20 -27 21 -2 2 1 3 7 3 6 0 18 -7
26 -16z m116 1 c0 -8 -4 -15 -10 -15 -5 0 -10 7 -10 15 0 8 5 15 10 15 6 0 10
-7 10 -15z m-100 -50 c7 -8 9 -15 6 -15 -4 0 -14 7 -22 15 -9 8 -11 15 -6 15
5 0 15 -7 22 -15z m120 -7 c0 -13 -32 -6 -37 9 -3 7 3 9 16 6 12 -3 21 -10 21
-15z m40 -8 c0 -5 -2 -10 -4 -10 -3 0 -8 5 -11 10 -3 6 -1 10 4 10 6 0 11 -4
11 -10z m205 -10 c-3 -5 -13 -10 -21 -10 -8 0 -14 5 -14 10 0 6 9 10 21 10 11
0 17 -4 14 -10z m-319 -15 c16 -12 16 -14 3 -15 -9 0 -22 7 -29 15 -16 19 0
19 26 0z m59 5 c3 -5 15 -10 26 -10 11 0 17 -4 14 -10 -3 -5 -10 -10 -14 -10
-14 0 -57 39 -44 40 6 0 15 -4 18 -10z m14 -40 c7 0 10 -4 6 -10 -8 -14 -55
10 -55 28 0 13 3 13 18 -1 10 -10 24 -17 31 -17z m71 10 c8 -5 12 -11 9 -14
-3 -3 -14 1 -25 9 -21 16 -8 20 16 5z m60 -40 c0 -5 -7 -7 -15 -4 -8 4 -15 8
-15 10 0 2 7 4 15 4 8 0 15 -4 15 -10z m37 4 c-3 -3 -12 -4 -19 -1 -8 3 -5 6
6 6 11 1 17 -2 13 -5z m-97 -29 c0 -2 -9 -3 -19 -2 -11 0 -18 5 -15 9 4 6 34
0 34 -7z m160 5 c-19 -13 -30 -13 -30 0 0 6 10 10 23 10 18 0 19 -2 7 -10z
m-90 -10 c0 -5 -2 -10 -4 -10 -3 0 -8 5 -11 10 -3 6 -1 10 4 10 6 0 11 -4 11
-10z m210 -15 c0 -9 7 -18 15 -21 25 -10 17 -21 -15 -21 -16 0 -27 4 -24 8 2
4 -1 9 -7 11 -14 5 0 38 17 38 8 0 14 -7 14 -15z m-265 -15 c3 -5 1 -10 -4
-10 -6 0 -11 5 -11 10 0 6 2 10 4 10 3 0 8 -4 11 -10z m50 -20 c-3 -5 -10 -10
-16 -10 -5 0 -9 5 -9 10 0 6 7 10 16 10 8 0 12 -4 9 -10z m54 -12 l14 -23 -24
20 c-13 11 -26 21 -28 22 -2 2 2 3 10 3 8 0 20 -10 28 -22z m-6 -23 c29 -8 32
-12 18 -34 -5 -8 -14 -10 -21 -6 -9 6 -11 4 -6 -4 6 -8 2 -11 -10 -9 -11 2
-18 -2 -16 -10 2 -10 -2 -10 -18 0 -28 18 -25 36 5 30 27 -5 35 12 10 22 -9 3
-12 12 -8 21 3 10 8 12 12 7 3 -6 19 -14 34 -17z m-63 5 c0 -5 -7 -10 -16 -10
-8 0 -12 5 -9 10 3 6 10 10 16 10 5 0 9 -4 9 -10z m160 -28 c0 -5 -7 -9 -15
-9 -8 0 -15 4 -15 9 0 4 7 8 15 8 8 0 15 -4 15 -8z m-267 -28 c-3 -9 -9 -12
-12 -7 -3 4 -10 11 -15 16 -5 4 0 7 12 7 15 0 20 -4 15 -16z m352 -94 c3 -5 1
-10 -4 -10 -6 0 -11 5 -11 10 0 6 2 10 4 10 3 0 8 -4 11 -10z m-80 -20 c3 -6
-1 -7 -9 -4 -18 7 -21 14 -7 14 6 0 13 -4 16 -10z m-35 -10 c8 -5 11 -10 7
-10 -4 0 -3 -9 3 -20 15 -27 -2 -25 -28 3 -28 30 -16 49 18 27z m-306 -15 c17
-18 33 -19 38 -4 2 7 12 0 21 -15 22 -33 13 -52 -15 -32 -11 8 -27 12 -34 9
-9 -3 -14 2 -14 17 0 15 -4 20 -15 17 -15 -7 -29 6 -18 17 10 10 20 7 37 -9z
m-39 -35 c3 -5 1 -10 -4 -10 -6 0 -11 5 -11 10 0 6 2 10 4 10 3 0 8 -4 11 -10z
m770 -41 c11 -17 -1 -21 -15 -4 -8 9 -8 15 -2 15 6 0 14 -5 17 -11z m-130 -9
c3 -5 2 -10 -4 -10 -5 0 -13 5 -16 10 -3 6 -2 10 4 10 5 0 13 -4 16 -10z m65
-20 c11 -11 16 -20 12 -20 -5 0 -17 9 -27 20 -10 11 -15 20 -12 20 4 0 16 -9
27 -20z m80 -50 c0 -5 -2 -10 -4 -10 -3 0 -8 5 -11 10 -3 6 -1 10 4 10 6 0 11
-4 11 -10z m-355 -22 c47 -31 49 -47 3 -29 -13 5 -27 9 -32 9 -9 0 -26 22 -26
35 0 13 20 7 55 -15z m399 -27 c4 -5 -3 -7 -14 -4 -23 6 -26 13 -6 13 8 0 17
-4 20 -9z m86 -7 c0 -8 -19 -13 -24 -6 -3 5 1 9 9 9 8 0 15 -2 15 -3z m-39
-41 c13 -16 12 -17 -3 -4 -17 13 -22 21 -14 21 2 0 10 -8 17 -17z m122 -33 c6
-25 -8 -26 -23 -2 -9 16 -11 16 -20 0 -11 -18 -35 -15 -43 6 -3 8 8 13 38 15
35 1 43 -2 48 -19z m42 -18 c-8 -9 -25 20 -18 31 3 5 10 2 15 -7 6 -10 7 -20
3 -24z m-406 14 c10 -12 8 -13 -8 -9 -12 3 -18 9 -15 14 7 12 10 11 23 -5z
m291 -31 c0 -14 31 -36 41 -29 8 4 4 11 -11 19 l-22 12 21 6 c25 6 35 -6 26
-33 -9 -28 -29 -25 -59 11 -28 32 -36 61 -11 35 8 -8 15 -17 15 -21z m-90 5
c0 -5 -2 -10 -4 -10 -3 0 -8 5 -11 10 -3 6 -1 10 4 10 6 0 11 -4 11 -10z m223
-21 c4 -15 2 -19 -10 -15 -8 3 -22 6 -31 6 -13 0 -12 3 4 15 26 19 31 19 37
-6z m-158 -10 c-4 -5 1 -9 9 -9 29 0 25 -18 -7 -34 -28 -14 -29 -16 -9 -16 13
0 36 7 51 15 31 15 43 11 34 -11 -3 -8 1 -14 8 -14 9 0 10 -3 2 -11 -8 -8 -17
-8 -31 0 -29 15 -32 14 -32 -11 l0 -21 -24 22 c-25 24 -46 21 -46 -5 0 -8 -4
-14 -9 -14 -11 0 17 78 36 101 7 9 10 19 6 24 -5 4 -2 5 5 1 7 -4 10 -12 7
-17z m-70 -19 c3 -5 2 -10 -4 -10 -5 0 -13 5 -16 10 -3 6 -2 10 4 10 5 0 13
-4 16 -10z m200 -11 c-4 -6 2 -13 13 -16 14 -3 19 -12 17 -30 -2 -18 3 -27 16
-30 11 -3 19 -10 19 -15 0 -14 30 18 31 34 0 9 2 10 5 1 3 -7 0 -21 -6 -33 -8
-16 -17 -19 -38 -14 -15 4 -24 3 -20 -1 10 -10 -17 -35 -38 -35 -13 0 -14 3
-4 15 10 12 10 15 -1 15 -10 1 -8 4 4 11 23 13 22 25 -3 32 -21 5 -28 27 -9
27 5 0 7 -4 4 -10 -3 -5 3 -10 14 -10 27 0 26 7 -1 29 -18 15 -19 41 -2 41 3
0 2 -5 -1 -11z m155 -14 c-7 -9 -15 -13 -18 -10 -3 2 1 11 8 20 7 9 15 13 18
10 3 -2 -1 -11 -8 -20z m0 -35 c0 -5 -2 -10 -4 -10 -3 0 -8 5 -11 10 -3 6 -1
10 4 10 6 0 11 -4 11 -10z m-220 -20 c12 -8 11 -10 -7 -10 -13 0 -23 5 -23 10
0 13 11 13 30 0z m-140 -8 c0 -4 -9 -8 -20 -8 -11 0 -20 4 -20 8 0 4 9 8 20 8
11 0 20 -4 20 -8z m68 -4 c-3 -7 -13 -15 -24 -17 -16 -3 -17 -1 -5 13 16 19
34 21 29 4z m73 -20 c50 -14 50 -25 -1 -25 -26 0 -37 4 -33 11 4 6 -3 2 -15
-8 -12 -11 -22 -14 -22 -8 0 7 4 12 10 12 5 0 7 7 4 15 -7 18 6 19 57 3z
m-137 -23 c13 17 15 17 16 4 0 -19 -23 -31 -45 -23 -8 4 -15 13 -15 22 0 13 3
12 14 -4 15 -19 15 -19 30 1z m340 0 c3 -8 1 -15 -4 -15 -6 0 -10 7 -10 15 0
8 2 15 4 15 2 0 6 -7 10 -15z m-34 -16 c0 -5 -4 -9 -10 -9 -5 0 -10 7 -10 16
0 8 5 12 10 9 6 -3 10 -10 10 -16z m-102 -29 c7 0 12 -4 12 -10 0 -5 -7 -10
-16 -10 -13 0 -14 -3 -5 -14 9 -11 7 -15 -13 -20 -13 -3 -32 -9 -41 -12 -15
-6 -16 -4 -6 14 9 16 8 24 -4 36 -8 8 -15 19 -15 25 0 15 43 18 61 4 8 -7 21
-13 27 -13z m178 21 c-4 -5 0 -11 6 -14 7 -2 10 -8 6 -12 -4 -4 -11 -4 -17 0
-14 8 -14 35 0 35 5 0 8 -4 5 -9z m-279 -7 c-3 -3 -12 -4 -19 -1 -8 3 -5 6 6
6 11 1 17 -2 13 -5z m-242 -14 c3 -5 2 -10 -4 -10 -5 0 -13 5 -16 10 -3 6 -2
10 4 10 5 0 13 -4 16 -10z m219 -20 c8 -16 11 -30 6 -30 -4 0 -13 14 -19 30
-5 17 -8 30 -6 30 2 0 10 -13 19 -30z m171 20 c-3 -5 -11 -10 -16 -10 -6 0 -7
5 -4 10 3 6 11 10 16 10 6 0 7 -4 4 -10z m-211 -8 c3 -5 -1 -9 -9 -9 -8 0 -15
4 -15 9 0 4 4 8 9 8 6 0 12 -4 15 -8z m322 -6 c3 -8 4 -23 2 -33 -3 -14 -8
-11 -21 15 -15 28 -16 32 -2 32 9 0 18 -6 21 -14z m-582 -2 c23 -9 20 -23 -4
-17 -11 3 -20 9 -20 14 0 11 3 11 24 3z m179 -19 c-3 -8 -10 -15 -15 -15 -7 0
-6 5 1 13 6 8 7 18 3 22 -4 5 -2 5 5 1 7 -4 10 -13 6 -21z m174 -1 c-7 -7 -37
7 -37 17 0 6 9 5 21 -1 11 -7 19 -14 16 -16z m-855 -1 c25 -22 23 -33 -7 -31
-25 2 -40 22 -29 39 8 13 15 11 36 -8z m1119 5 c1 -7 1 -19 0 -27 -2 -7 2 -10
8 -6 6 3 11 1 11 -4 0 -6 -9 -11 -20 -11 -21 0 -27 15 -10 25 8 5 7 11 -1 21
-8 10 -8 14 0 14 6 0 12 -6 12 -12z m-116 -11 c14 1 15 0 3 -3 -9 -3 -19 -16
-22 -30 -4 -13 -11 -24 -17 -24 -8 0 -8 4 0 14 10 11 10 20 1 37 -10 17 -10
20 2 13 7 -5 22 -8 33 -7z m-1130 -7 c-3 -5 -11 -10 -16 -10 -6 0 -7 5 -4 10
3 6 11 10 16 10 6 0 7 -4 4 -10z m-256 -23 c0 -9 -2 -8 -6 1 -2 6 -10 9 -15 6
-7 -4 -8 -2 -4 5 9 13 26 5 25 -12z m1345 14 c3 -5 -1 -14 -9 -21 -11 -9 -14
-8 -12 9 1 22 12 28 21 12z m-1431 -52 c-24 -22 -43 -44 -43 -50 0 -6 -5 -7
-12 -3 -8 5 5 22 38 50 62 55 73 57 17 3z m687 31 c0 -5 -2 -10 -4 -10 -3 0
-8 5 -11 10 -3 6 -1 10 4 10 6 0 11 -4 11 -10z m613 -5 c-3 -9 -8 -14 -10 -11
-3 3 -2 9 2 15 9 16 15 13 8 -4z m223 -15 c-1 -17 -6 -30 -11 -30 -6 0 -10 5
-9 10 1 6 2 19 3 30 2 32 19 23 17 -10z m-259 14 c-3 -3 -12 -4 -19 -1 -8 3
-5 6 6 6 11 1 17 -2 13 -5z m216 -13 c-13 -11 -23 -25 -23 -32 0 -10 -3 -10
-11 -2 -9 9 -8 16 3 27 9 8 18 12 22 9 3 -4 6 -1 6 5 0 7 6 12 13 12 6 -1 2
-9 -10 -19z m-93 -1 c0 -5 -7 -10 -16 -10 -8 0 -12 5 -9 10 3 6 10 10 16 10 5
0 9 -4 9 -10z m-40 -14 c0 -2 3 -11 6 -19 4 -11 0 -15 -13 -13 -23 4 -31 36
-9 36 9 0 16 -2 16 -4z m90 -31 c7 -8 11 -15 9 -16 -53 -8 -80 -6 -76 4 2 7
11 11 21 9 9 -2 16 2 16 8 0 15 16 12 30 -5z m-1430 -5 c0 -5 -5 -10 -11 -10
-5 0 -7 5 -4 10 3 6 8 10 11 10 2 0 4 -4 4 -10z m1500 0 c0 -5 -4 -10 -10 -10
-5 0 -10 5 -10 10 0 6 5 10 10 10 6 0 10 -4 10 -10z m45 -1 c10 -15 -1 -23
-20 -15 -9 3 -13 10 -10 16 8 13 22 13 30 -1z m-1075 -52 c0 5 8 9 18 10 15 1
18 -4 14 -23 -5 -27 -22 -33 -22 -7 0 9 -3 13 -7 10 -8 -9 -43 22 -43 37 1 6
10 0 20 -13 11 -13 20 -19 20 -14z m970 13 c0 -5 -5 -10 -11 -10 -5 0 -7 5 -4
10 3 6 8 10 11 10 2 0 4 -4 4 -10z m-103 -6 c-3 -3 -12 -4 -19 -1 -8 3 -5 6 6
6 11 1 17 -2 13 -5z m188 -23 c2 -12 0 -19 -6 -16 -5 4 -9 16 -9 27 0 26 9 19
15 -11z m-1765 11 c0 -5 -9 -17 -20 -27 -19 -17 -19 -17 -7 9 12 25 27 35 27
18z m237 -21 c-1 -16 -5 -27 -9 -25 -4 3 -6 15 -4 27 6 28 5 27 11 27 2 0 3
-13 2 -29z m-159 1 c-9 -10 -13 -11 -19 0 -5 7 -9 10 -10 6 -1 -5 -2 -11 -3
-15 -5 -26 -36 -46 -36 -23 0 18 35 46 57 46 17 0 19 -3 11 -14z m42 3 c0 -8
-7 -15 -16 -15 -14 0 -14 3 -4 15 7 8 14 15 16 15 2 0 4 -7 4 -15z m141 -8
c-10 -9 -11 -8 -5 6 3 10 9 15 12 12 3 -3 0 -11 -7 -18z m-61 3 c0 -5 -5 -10
-11 -10 -5 0 -7 5 -4 10 3 6 8 10 11 10 2 0 4 -4 4 -10z m-204 -26 c-30 -21
-42 -17 -15 5 13 11 26 17 29 14 3 -2 -4 -11 -14 -19z m498 -7 c-11 -6 -12
-13 -4 -28 6 -11 7 -19 1 -19 -16 0 -20 28 -8 54 8 16 14 20 19 13 4 -6 1 -15
-8 -20z m156 -4 c0 -9 -1 -14 -3 -12 -1 2 -11 15 -22 28 l-20 24 23 -12 c12
-6 22 -19 22 -28z m810 33 c0 -3 -4 -8 -10 -11 -5 -3 -10 -1 -10 4 0 6 5 11
10 11 6 0 10 -2 10 -4z m-1150 -15 c0 -6 -4 -12 -8 -15 -5 -3 -9 1 -9 9 0 8 4
15 9 15 4 0 8 -4 8 -9z m75 -1 c3 -5 1 -10 -4 -10 -6 0 -11 5 -11 10 0 6 2 10
4 10 3 0 8 -4 11 -10z m195 -36 c-6 -15 -6 -24 0 -24 12 0 31 36 23 44 -3 3
-2 6 4 6 6 0 16 -7 23 -15 9 -11 8 -18 -9 -36 -15 -17 -18 -26 -10 -40 5 -11
15 -19 21 -19 9 0 9 3 0 12 -7 7 -12 19 -12 27 0 11 6 9 23 -7 29 -27 43 -17
22 15 -12 17 -13 28 -5 43 6 11 15 20 20 20 16 0 11 -17 -6 -24 -8 -3 -12 -10
-9 -16 4 -6 10 -8 15 -5 5 3 18 1 29 -4 15 -9 19 -20 18 -56 -1 -25 -6 -45
-11 -45 -5 0 -14 -7 -21 -17 -11 -14 -14 -15 -33 -1 -12 8 -19 18 -15 21 3 4
2 7 -4 7 -6 0 -16 -7 -23 -15 -7 -9 -22 -14 -33 -13 -11 2 -22 -3 -24 -9 -3
-7 0 -13 7 -13 6 0 8 -5 5 -10 -4 -7 -14 -5 -28 5 -30 21 -44 19 -24 -3 21
-23 21 -24 -2 -50 -22 -26 -31 -28 -31 -6 0 8 4 13 9 9 16 -10 20 9 7 40 l-12
30 -13 -35 c-7 -20 -15 -30 -19 -24 -9 14 -52 25 -52 13 0 -5 -7 -9 -15 -9 -8
0 -15 -4 -15 -9 0 -6 8 -8 19 -6 14 3 18 -1 13 -17 -4 -15 -7 -17 -13 -6 -7
11 -12 11 -29 0 -23 -14 -40 -8 -40 13 0 7 -6 15 -12 18 -7 3 1 5 18 4 57 0
69 23 34 63 -11 13 -20 19 -20 15 0 -5 6 -16 14 -24 12 -14 12 -18 0 -29 -12
-11 -14 -9 -14 8 0 13 -5 20 -12 17 -7 -2 -12 -12 -11 -22 1 -12 -2 -14 -10
-6 -16 16 -27 14 -21 -4 4 -8 1 -15 -4 -15 -6 0 -14 10 -18 23 -9 30 -41 60
-49 46 -5 -7 -11 -6 -21 2 -21 17 -17 24 16 25 17 1 30 -3 30 -7 0 -5 4 -9 9
-9 5 0 4 11 -2 24 -7 14 -13 23 -15 21 -11 -10 -58 18 -59 36 -1 12 3 19 10
16 7 -2 11 -12 11 -21 -2 -13 1 -14 11 -6 10 8 19 8 35 0 20 -11 44 -5 36 9
-3 3 4 7 14 7 10 0 16 -4 14 -8 -3 -4 -2 -14 2 -20 6 -9 10 -5 15 12 12 43 10
60 -8 60 -13 0 -14 3 -5 12 9 9 16 8 30 -5 10 -9 24 -17 30 -17 6 0 14 -9 17
-20 8 -24 25 -27 25 -4 0 8 5 12 10 9 18 -11 11 -35 -10 -35 -11 0 -20 -5 -20
-11 0 -6 7 -8 17 -5 16 6 16 6 0 -12 -11 -12 -15 -26 -11 -37 5 -13 3 -16 -7
-13 -9 3 -13 16 -11 37 3 22 0 31 -7 27 -17 -11 -12 -48 8 -73 22 -26 33 -30
25 -8 -4 8 -1 15 6 15 9 0 10 3 2 13 -14 16 13 61 30 51 8 -5 9 3 5 24 -4 19
-2 32 3 32 6 0 9 -3 9 -7 -3 -20 3 -23 24 -11 12 7 27 12 32 13 6 0 11 11 13
25 2 22 1 23 -8 8 -6 -10 -16 -18 -22 -18 -6 0 -3 9 7 20 10 11 21 17 26 15 4
-3 11 -1 14 5 14 22 35 -9 25 -36z m920 15 c0 -5 -4 -9 -10 -9 -5 0 -10 7 -10
16 0 8 5 12 10 9 6 -3 10 -10 10 -16z m200 0 c0 -11 -4 -17 -10 -14 -5 3 -10
13 -10 21 0 8 5 14 10 14 6 0 10 -9 10 -21z m-1270 1 c0 -5 -5 -10 -11 -10 -5
0 -7 5 -4 10 3 6 8 10 11 10 2 0 4 -4 4 -10z m1305 0 c3 -5 1 -10 -4 -10 -6 0
-11 5 -11 10 0 6 2 10 4 10 3 0 8 -4 11 -10z m-1805 -10 c0 -5 -5 -10 -11 -10
-5 0 -7 5 -4 10 3 6 8 10 11 10 2 0 4 -4 4 -10z m205 0 c3 -5 -1 -10 -9 -10
-9 0 -16 5 -16 10 0 6 4 10 9 10 6 0 13 -4 16 -10z m-191 -39 c-10 -17 -22
-31 -27 -31 -8 0 -6 4 23 47 21 33 25 19 4 -16z m50 15 c-3 -8 -1 -17 5 -21
14 -8 14 -25 1 -25 -5 0 -10 7 -10 16 0 8 -4 12 -10 9 -5 -3 -10 0 -10 9 0 12
6 18 27 25 1 1 0 -5 -3 -13z m89 -3 c-7 -3 -10 -10 -7 -18 3 -7 1 -16 -4 -19
-5 -3 -12 7 -14 23 -4 24 -1 27 16 23 11 -3 15 -7 9 -9z m83 -13 c0 -11 -4
-20 -8 -20 -4 0 -8 9 -8 20 0 11 4 20 8 20 4 0 8 -9 8 -20z m-60 -20 c-1 -10
3 -18 9 -17 5 1 8 8 7 16 -2 8 5 6 18 -6 25 -24 24 -75 -2 -102 -10 -11 -14
-27 -11 -40 3 -11 1 -21 -5 -21 -6 0 -16 -16 -23 -35 -13 -36 -32 -48 -27 -17
2 10 -3 17 -12 17 -8 0 -16 -10 -18 -23 -3 -19 -5 -20 -18 -8 -17 18 -17 36 0
58 10 13 15 15 24 6 7 -7 12 -9 12 -4 0 15 -29 36 -35 26 -3 -5 -11 -10 -16
-10 -6 0 -7 5 -4 10 3 6 1 10 -4 10 -7 0 -7 7 1 20 8 12 19 18 30 14 10 -3 18
-1 18 5 0 6 -6 11 -13 11 -7 0 -17 8 -24 18 -9 15 -7 25 9 51 24 37 33 36 18
-3 -5 -15 -10 -32 -10 -37 0 -15 22 -10 36 9 13 16 15 15 34 -8 11 -14 20 -19
20 -12 0 6 -8 20 -17 30 -10 9 -17 27 -15 40 4 27 19 30 18 2z m1574 0 c0 -5
-2 -10 -4 -10 -3 0 -8 5 -11 10 -3 6 -1 10 4 10 6 0 11 -4 11 -10z m35 0 c-3
-5 -11 -10 -16 -10 -6 0 -7 5 -4 10 3 6 11 10 16 10 6 0 7 -4 4 -10z m-1805
-34 c0 -15 -18 -31 -26 -23 -7 7 7 37 17 37 5 0 9 -6 9 -14z m1810 4 c0 -5 -4
-10 -10 -10 -5 0 -10 5 -10 10 0 6 5 10 10 10 6 0 10 -4 10 -10z m-707 -30 c7
-26 -24 -36 -40 -14 -9 12 -10 21 -2 30 13 16 36 8 42 -16z m697 -34 c0 -6
-11 5 -25 24 -14 19 -25 36 -25 39 1 10 50 -53 50 -63z m-1797 19 c-3 -9 -8
-14 -10 -11 -3 3 -2 9 2 15 9 16 15 13 8 -4z m733 -22 c17 -22 18 -37 2 -27
-8 5 -9 2 -5 -9 3 -10 2 -17 -3 -17 -5 0 -12 -22 -16 -50 -4 -27 -13 -58 -21
-67 -13 -16 -14 -15 -9 12 2 17 7 44 11 62 3 18 1 41 -5 53 -6 11 -7 20 -2 20
6 0 12 9 15 20 6 25 16 25 33 3z m224 2 c0 -8 -4 -15 -10 -15 -5 0 -7 7 -4 15
4 8 8 15 10 15 2 0 4 -7 4 -15z m-980 -9 c0 -2 -8 -10 -17 -17 -16 -13 -17
-12 -4 4 13 16 21 21 21 13z m375 -25 c3 -10 25 -38 49 -62 53 -54 63 -92 29
-108 -27 -12 -28 -9 -8 22 21 33 5 53 -23 27 -32 -30 -61 -23 -30 8 15 15 3
28 -14 14 -9 -7 -17 -6 -27 5 -12 13 -11 14 10 8 22 -7 22 -6 10 9 -8 9 -21
14 -29 11 -22 -8 -45 14 -31 31 9 12 15 12 27 2 13 -11 15 -9 9 20 -5 24 -3
32 8 32 7 0 16 -8 20 -19z m-82 -3 c2 -7 2 -21 -1 -31 -3 -13 -8 -15 -17 -7
-7 6 -11 20 -8 30 6 23 19 26 26 8z m722 -120 c2 -32 -14 -38 -22 -8 -3 11
-10 20 -15 20 -5 0 -5 6 0 17 6 10 6 29 1 47 -15 53 -9 53 13 1 11 -27 22 -62
23 -77z m-305 91 c0 -5 -7 -9 -15 -9 -8 0 -15 7 -15 15 0 9 6 12 15 9 8 -4 15
-10 15 -15z m-616 -44 c-9 -14 -20 -25 -25 -25 -5 0 1 11 13 25 12 14 23 25
25 25 2 0 -4 -11 -13 -25z m833 -6 c2 -13 13 -32 26 -43 12 -10 22 -23 22 -29
0 -5 8 -11 18 -13 26 -4 28 -7 14 -34 -14 -28 -44 -34 -39 -8 1 9 -2 19 -8 23
-5 3 -10 -2 -10 -11 0 -16 -1 -16 -12 -2 -15 18 -43 29 -52 21 -3 -3 2 -12 12
-19 11 -9 13 -16 6 -21 -6 -5 -15 -16 -21 -27 -10 -17 -10 -17 -16 3 -3 11 -1
21 4 21 13 0 11 26 -3 42 -24 25 -20 91 6 101 11 4 13 0 10 -16 -15 -63 -14
-69 13 -62 17 4 29 1 34 -7 4 -7 11 -10 14 -6 7 7 -12 49 -26 58 -4 3 -11 18
-15 34 -5 21 -4 28 6 24 7 -2 15 -15 17 -29z m758 12 c-3 -6 -11 -11 -17 -11
-6 0 -6 6 2 15 14 17 26 13 15 -4z m-999 -13 c-14 -8 -15 -13 -5 -24 9 -11 9
-14 -1 -14 -8 0 -10 -8 -6 -24 4 -15 1 -28 -6 -32 -8 -5 -9 -2 -5 9 3 10 2 17
-3 17 -6 0 -10 9 -10 19 0 11 -4 23 -10 26 -5 3 -10 12 -10 18 0 7 4 6 10 -3
8 -13 12 -12 25 8 9 12 21 19 27 16 7 -4 4 -10 -6 -16z m-398 -6 c2 -7 -2 -10
-11 -6 -10 3 -20 -3 -27 -16 -6 -12 -14 -19 -17 -16 -3 3 2 17 11 31 17 26 36
29 44 7z m31 -5 c12 -15 12 -17 -3 -11 -9 3 -16 13 -16 22 0 8 1 13 3 11 1 -2
9 -12 16 -22z m1541 2 c0 -14 -17 -10 -23 5 -4 10 -1 13 9 9 7 -3 14 -9 14
-14z m-323 -21 c-3 -8 -6 -5 -6 6 -1 11 2 17 5 13 3 -3 4 -12 1 -19z m-977
-27 c0 -4 -9 -7 -19 -7 -14 0 -17 4 -11 12 6 6 6 15 2 20 -4 4 1 2 11 -5 9 -7
17 -16 17 -20z m46 14 c-22 -17 -36 -19 -36 -7 0 14 12 22 34 22 21 -1 21 -1
2 -15z m299 5 c3 -5 1 -10 -4 -10 -6 0 -11 5 -11 10 0 6 2 10 4 10 3 0 8 -4
11 -10z m1025 -38 c0 -13 -3 -12 -15 4 -19 25 -19 40 0 24 8 -7 15 -20 15 -28z
m-1750 1 c0 -19 -3 -24 -10 -17 -6 6 -8 18 -4 27 9 24 14 21 14 -10z m320 11
c0 -8 -4 -12 -10 -9 -5 3 -10 10 -10 16 0 5 5 9 10 9 6 0 10 -7 10 -16z m-120
-9 c10 -12 10 -15 -4 -15 -9 0 -16 7 -16 15 0 8 2 15 4 15 2 0 9 -7 16 -15z
m925 5 c10 -16 -15 -54 -28 -41 -7 7 -7 14 1 24 7 8 9 17 5 20 -3 4 -1 7 5 7
6 0 14 -4 17 -10z m405 0 c0 -5 -5 -10 -11 -10 -5 0 -7 5 -4 10 3 6 8 10 11
10 2 0 4 -4 4 -10z m-1504 -26 c-3 -9 -6 -18 -6 -20 0 -3 -4 -3 -10 1 -11 7
-2 35 12 35 6 0 7 -7 4 -16z m1544 6 c0 -5 -4 -10 -10 -10 -5 0 -10 5 -10 10
0 6 5 10 10 10 6 0 10 -4 10 -10z m-1330 -10 c0 -5 -2 -10 -4 -10 -3 0 -8 5
-11 10 -3 6 -1 10 4 10 6 0 11 -4 11 -10z m650 -5 c0 -8 -7 -15 -15 -15 -16 0
-20 12 -8 23 11 12 23 8 23 -8z m-930 -40 c0 -5 -5 -3 -10 5 -5 8 -10 20 -10
25 0 6 5 3 10 -5 5 -8 10 -19 10 -25z m1440 31 c0 -3 -4 -8 -10 -11 -5 -3 -10
-1 -10 4 0 6 5 11 10 11 6 0 10 -2 10 -4z m-740 -16 c0 -5 -5 -10 -11 -10 -5
0 -7 5 -4 10 3 6 8 10 11 10 2 0 4 -4 4 -10z m668 -15 c-3 -3 -9 2 -12 12 -6
14 -5 15 5 6 7 -7 10 -15 7 -18z m192 0 c0 -8 -4 -16 -9 -19 -12 -8 -34 21
-27 33 9 14 36 2 36 -14z m-1466 -25 c-6 -6 -10 -3 -10 10 0 13 4 16 10 10 7
-7 7 -13 0 -20z m610 -19 c-6 -6 -24 19 -24 34 1 6 7 1 15 -9 8 -11 12 -22 9
-25z m495 0 c-6 -2 -15 3 -20 10 -15 24 -10 29 11 11 12 -10 16 -18 9 -21z
m381 19 c0 -5 -4 -10 -10 -10 -5 0 -10 5 -10 10 0 6 5 10 10 10 6 0 10 -4 10
-10z m-1400 -29 c0 -5 -7 -12 -16 -15 -21 -8 -24 -8 -24 5 0 5 5 7 10 4 6 -3
10 -1 10 4 0 6 5 11 10 11 6 0 10 -4 10 -9z m285 0 c3 -5 1 -12 -5 -16 -5 -3
-10 1 -10 9 0 18 6 21 15 7z m80 -1 c-3 -5 -11 -10 -16 -10 -6 0 -7 5 -4 10 3
6 11 10 16 10 6 0 7 -4 4 -10z m1142 -29 c-5 -2 -13 3 -18 10 -15 24 -10 30 9
12 10 -10 14 -20 9 -22z m-952 19 c-3 -5 -10 -10 -16 -10 -5 0 -9 5 -9 10 0 6
7 10 16 10 8 0 12 -4 9 -10z m98 -23 c4 3 7 1 7 -6 0 -20 -35 -7 -38 14 -3 19
-2 19 11 3 8 -10 17 -15 20 -11z m-97 -16 c-17 -19 -17 -20 21 -24 l38 -4 -42
-1 c-36 -2 -43 1 -43 17 0 11 8 22 18 24 9 3 19 5 21 6 2 0 -4 -8 -13 -18z
m-226 -3 c0 -7 -7 -22 -15 -32 -16 -21 -18 -15 -9 22 7 23 24 31 24 10z m140
-8 c0 -5 -2 -10 -4 -10 -3 0 -8 5 -11 10 -3 6 -1 10 4 10 6 0 11 -4 11 -10z
m-45 -11 c11 -17 -1 -21 -15 -4 -8 9 -8 15 -2 15 6 0 14 -5 17 -11z m1055 1
c0 -5 -2 -10 -4 -10 -3 0 -8 5 -11 10 -3 6 -1 10 4 10 6 0 11 -4 11 -10z
m-1450 -77 c0 -41 -14 -49 -29 -17 -9 22 -14 24 -26 14 -12 -10 -15 -9 -15 6
0 11 10 24 23 29 14 7 21 17 19 30 -2 17 0 16 12 -5 9 -14 15 -39 16 -57z
m234 62 c3 -8 1 -15 -4 -15 -6 0 -10 7 -10 15 0 8 2 15 4 15 2 0 6 -7 10 -15z
m1126 8 c0 -14 -19 -38 -25 -32 -8 8 5 39 16 39 5 0 9 -3 9 -7z m-1340 -19 c0
-8 -5 -12 -10 -9 -6 4 -8 11 -5 16 9 14 15 11 15 -7z m1520 8 c0 -5 -7 -9 -15
-9 -8 0 -12 4 -9 9 3 4 9 8 15 8 5 0 9 -4 9 -8z m-1670 -21 c7 -14 7 -22 0
-26 -6 -4 -9 -1 -8 7 2 7 -5 12 -15 12 -14 -2 -15 1 -6 12 15 18 16 18 29 -5z
m452 -21 c3 -38 -4 -51 -16 -31 -3 5 -16 7 -29 5 -13 -2 -16 -1 -7 3 22 9 39
35 33 50 -3 7 -1 13 5 13 5 0 12 -18 14 -40z m91 14 c4 -1 10 -2 13 -3 7 -1
-22 -31 -31 -31 -3 0 -4 4 0 9 3 5 1 12 -5 16 -5 3 -10 11 -10 16 0 6 6 7 13
2 6 -4 15 -8 20 -9z m154 4 c4 -7 6 -25 4 -40 -1 -16 2 -28 9 -28 6 0 8 -4 5
-10 -11 -18 -44 -11 -56 11 -10 19 -9 21 9 17 15 -4 18 -1 14 14 -3 11 -10 17
-18 14 -8 -3 -14 -4 -14 -2 0 3 -3 11 -6 20 -5 12 0 16 19 16 14 0 29 -6 34
-12z m-502 -8 c3 -5 1 -10 -4 -10 -6 0 -11 5 -11 10 0 6 2 10 4 10 3 0 8 -4
11 -10z m67 -1 c1 5 16 -1 33 -14 16 -13 27 -26 25 -29 -8 -7 -90 35 -90 46 0
6 6 6 14 -1 8 -7 15 -8 18 -2z m1413 -19 c8 -16 15 -33 15 -37 -1 -14 -40 39
-40 53 0 22 8 17 25 -16z m-115 15 c0 -2 -9 -9 -20 -15 -16 -9 -18 -8 -14 5 5
13 34 22 34 10z m-1205 -15 c-3 -5 -11 -10 -16 -10 -6 0 -7 5 -4 10 3 6 11 10
16 10 6 0 7 -4 4 -10z m-311 -15 c-4 -8 -10 -12 -15 -9 -11 6 -2 24 11 24 5 0
7 -7 4 -15z m555 -63 c6 -2 11 -10 11 -18 0 -12 -3 -12 -23 1 -16 10 -22 23
-21 42 3 47 6 50 14 13 5 -19 13 -36 19 -38z m903 46 c-7 -7 -12 -8 -12 -2 0
6 3 14 7 17 3 4 9 5 12 2 2 -3 -1 -11 -7 -17z m-972 -18 c0 -5 -10 -10 -22
-10 -19 0 -20 2 -8 10 19 13 30 13 30 0z m1165 -10 c3 -5 1 -10 -4 -10 -6 0
-11 5 -11 10 0 6 2 10 4 10 3 0 8 -4 11 -10z m-1741 -34 c-3 -9 -10 -13 -15
-10 -5 3 -3 11 4 19 15 16 19 13 11 -9z m1830 8 c4 -10 1 -14 -6 -12 -15 5
-23 28 -10 28 5 0 13 -7 16 -16z m-1134 -4 c0 -5 -4 -10 -10 -10 -5 0 -10 5
-10 10 0 6 5 10 10 10 6 0 10 -4 10 -10z m1210 0 c0 -5 -4 -10 -10 -10 -5 0
-10 5 -10 10 0 6 5 10 10 10 6 0 10 -4 10 -10z m57 -7 c-9 -9 -20 -13 -24 -9
-4 4 -1 11 7 16 25 16 35 11 17 -7z m-40 -13 c-3 -11 -1 -20 5 -20 5 0 6 -5 2
-11 -11 -18 -27 7 -19 30 8 27 19 28 12 1z m-1362 -10 c-3 -5 3 -13 12 -19 10
-5 15 -12 11 -16 -6 -7 -48 33 -48 47 0 4 7 5 15 2 8 -4 13 -10 10 -14z m191
-2 l19 -23 -25 20 c-14 11 -27 21 -29 22 -2 2 0 3 6 3 5 0 18 -10 29 -22z
m-121 -9 c-10 -15 -25 -10 -19 6 4 8 10 12 15 9 5 -3 7 -10 4 -15z m455 13 c0
-4 -5 -13 -11 -19 -8 -8 -5 -14 10 -23 12 -6 19 -15 16 -20 -3 -5 -1 -11 4
-14 5 -4 8 -14 6 -24 -2 -9 -4 -21 -4 -25 -1 -4 -20 -5 -43 -2 -41 6 -42 6
-27 -12 9 -10 14 -25 12 -33 -3 -11 0 -10 10 3 13 16 15 15 22 -15 l9 -33 4
34 c3 27 6 31 14 20 7 -11 11 -11 15 -1 2 6 9 10 14 6 13 -8 11 10 -3 25 -11
10 -7 12 17 9 38 -4 67 -48 44 -69 -8 -8 -22 -15 -32 -15 -13 -2 -16 3 -12 20
5 18 5 19 -5 4 -6 -10 -10 -30 -8 -45 3 -24 0 -28 -22 -25 -19 2 -22 0 -12
-10 10 -10 23 -8 66 6 30 10 66 17 79 14 20 -4 27 0 31 16 3 11 8 18 11 14 8
-8 -26 -78 -38 -78 -5 0 -4 6 3 14 9 12 7 15 -12 15 -13 0 -32 1 -42 1 -20 1
-38 -18 -30 -32 3 -4 0 -8 -5 -8 -6 0 -11 5 -11 10 0 6 -10 3 -23 -6 -24 -19
-32 -55 -10 -47 7 3 13 -1 13 -8 0 -7 6 -5 14 7 20 27 32 10 16 -23 -7 -16
-15 -23 -17 -16 -4 11 -31 7 -43 -6 -3 -3 -23 -16 -45 -28 -22 -13 -39 -28
-37 -35 3 -10 1 -10 -10 0 -10 10 -10 15 -1 20 16 10 12 52 -5 52 -7 0 -12 6
-9 13 2 6 -4 22 -15 34 -11 11 -18 29 -16 40 4 14 8 10 20 -17 9 -19 17 -28
17 -20 1 15 48 60 63 60 4 0 -1 -9 -12 -20 -21 -21 -27 -50 -10 -50 6 0 10 8
8 18 -2 11 3 17 15 16 16 -2 22 13 18 44 -1 8 7 16 18 19 12 3 21 9 21 14 0
14 -16 10 -43 -11 -14 -11 -31 -20 -37 -20 -7 0 -19 -8 -26 -17 -12 -16 -15
-16 -24 -3 -12 19 -13 33 -1 26 5 -3 23 0 39 7 25 10 28 16 21 30 -13 23 -36
22 -44 -2 -7 -22 -35 -18 -35 5 0 8 -6 14 -12 15 -10 0 -10 2 -1 5 7 3 10 11
7 17 -6 16 22 54 32 44 4 -4 -1 -14 -12 -21 -10 -8 -15 -18 -11 -23 5 -4 13 0
18 10 6 9 14 15 20 12 5 -4 9 -3 9 2 0 14 -19 38 -30 39 -5 1 -13 2 -17 3 -3
0 2 10 12 21 10 11 22 17 26 14 5 -3 6 1 3 9 -3 9 3 17 18 20 16 5 20 9 12 17
-15 15 -44 1 -44 -22 0 -10 -4 -16 -10 -13 -5 3 -10 1 -10 -4 0 -6 -6 -11 -14
-11 -8 0 -17 -6 -19 -12 -4 -8 -6 -7 -6 3 -1 9 6 19 14 23 8 3 12 12 9 19 -4
12 35 36 68 41 3 1 10 4 14 9 10 9 34 9 34 -1z m-347 -50 c9 -8 17 -22 17 -31
-1 -14 -2 -13 -11 2 -5 9 -23 24 -39 32 -17 9 -30 20 -30 26 0 11 35 -5 63
-29z m-352 1 c-23 -16 -24 -17 -5 -25 17 -7 16 -8 -4 -4 -19 4 -23 -1 -28 -35
-6 -33 -10 -39 -27 -37 -11 2 -22 8 -24 15 -5 14 82 103 100 103 6 0 1 -8 -12
-17z m229 -4 c0 -6 -4 -7 -10 -4 -5 3 -10 11 -10 16 0 6 5 7 10 4 6 -3 10 -11
10 -16z m1024 -6 c10 -26 0 -25 -18 1 -13 20 -13 24 -2 20 8 -3 17 -13 20 -21z
m-946 -1 c2 -7 -2 -10 -12 -6 -9 3 -16 11 -16 16 0 13 23 5 28 -10z m1246 3
c-4 -8 -8 -15 -10 -15 -2 0 -4 7 -4 15 0 8 4 15 10 15 5 0 7 -7 4 -15z m-644
-19 c0 -3 -4 -8 -10 -11 -5 -3 -10 -1 -10 4 0 6 5 11 10 11 6 0 10 -2 10 -4z
m-867 -18 c7 -20 -9 -54 -29 -62 -17 -6 -17 -6 0 13 11 12 16 29 13 41 -6 22
8 28 16 8z m1487 -9 c0 -6 -4 -7 -10 -4 -5 3 -10 11 -10 16 0 6 5 7 10 4 6 -3
10 -11 10 -16z m-41 -30 c-12 -8 -12 -11 1 -19 12 -8 11 -10 -7 -10 -24 0 -43
22 -24 28 7 2 17 10 24 17 7 8 13 9 16 3 2 -6 -3 -14 -10 -19z m-1084 -9 c-8
-9 -15 -23 -15 -31 -1 -10 -3 -10 -10 3 -14 22 -2 47 20 45 17 -1 18 -3 5 -17z
m25 -14 c0 -3 -4 -8 -10 -11 -5 -3 -10 -1 -10 4 0 6 5 11 10 11 6 0 10 -2 10
-4z m867 -38 c-3 -8 -6 -5 -6 6 -1 11 2 17 5 13 3 -3 4 -12 1 -19z m-110 -27
c1 -11 -2 -23 -7 -26 -9 -6 -14 11 -13 43 1 10 -4 9 -17 -3 -10 -9 -16 -24
-14 -33 4 -12 2 -11 -7 2 -10 17 -8 22 11 38 25 21 41 13 47 -21z m-1152 12
c-24 -9 -37 -21 -39 -38 -2 -11 -7 -20 -13 -22 -11 -4 -27 26 -18 35 3 3 5 0
5 -7 0 -7 14 1 30 19 17 18 34 29 38 25 4 -4 3 -9 -3 -12z m942 -8 c8 -22 -6
-33 -17 -15 -13 20 -12 30 0 30 6 0 13 -7 17 -15z m-107 -5 c-20 -13 -43 -13
-35 0 3 6 16 10 28 10 18 0 19 -2 7 -10z m-747 -15 c-3 -9 -8 -14 -10 -11 -3
3 -2 9 2 15 9 16 15 13 8 -4z m257 5 c0 -5 -4 -10 -10 -10 -5 0 -10 5 -10 10
0 6 5 10 10 10 6 0 10 -4 10 -10z m40 0 c0 -5 -4 -10 -10 -10 -5 0 -10 5 -10
10 0 6 5 10 10 10 6 0 10 -4 10 -10z m-367 -31 c-8 -8 -8 -20 -3 -35 5 -13 7
-24 4 -24 -2 0 -8 10 -13 23 -9 22 5 65 17 53 3 -4 1 -11 -5 -17z m338 -16
c-16 -30 -40 -59 -40 -48 0 6 6 19 14 29 8 10 12 23 9 27 -3 5 2 9 11 9 12 0
13 -4 6 -17z m186 11 c-3 -3 -12 -4 -19 -1 -8 3 -5 6 6 6 11 1 17 -2 13 -5z
m-557 -24 c0 -5 -17 -14 -37 -19 -47 -13 -53 -13 -53 -1 0 5 6 7 14 4 8 -3 17
0 21 5 3 6 10 9 15 6 5 -3 11 -1 15 5 8 13 25 13 25 0z m-180 -17 c0 -5 -15
-16 -33 -26 l-32 -19 24 26 c24 26 41 33 41 19z m1358 -18 c-3 -3 -9 2 -12 12
-6 14 -5 15 5 6 7 -7 10 -15 7 -18z m-1328 11 c0 -3 -4 -8 -10 -11 -5 -3 -10
-1 -10 4 0 6 5 11 10 11 6 0 10 -2 10 -4z m1180 -22 c0 -8 -4 -12 -10 -9 -5 3
-10 10 -10 16 0 5 5 9 10 9 6 0 10 -7 10 -16z m230 6 c0 -5 -2 -10 -4 -10 -3
0 -8 5 -11 10 -3 6 -1 10 4 10 6 0 11 -4 11 -10z m-1703 -26 c-3 -3 -12 -4
-19 -1 -8 3 -5 6 6 6 11 1 17 -2 13 -5z m1623 -25 c0 -6 -4 -7 -10 -4 -5 3
-10 11 -10 16 0 6 5 7 10 4 6 -3 10 -11 10 -16z m30 11 c0 -5 -4 -10 -10 -10
-5 0 -10 5 -10 10 0 6 5 10 10 10 6 0 10 -4 10 -10z m-1178 -32 c-7 -7 -12 -8
-12 -2 0 6 3 14 7 17 3 4 9 5 12 2 2 -3 -1 -11 -7 -17z m978 2 c0 -5 -5 -10
-11 -10 -5 0 -7 5 -4 10 3 6 8 10 11 10 2 0 4 -4 4 -10z m-232 -18 c2 -7 -2
-10 -12 -6 -9 3 -16 1 -16 -5 0 -6 5 -11 10 -11 6 0 10 -7 10 -16 0 -10 -5
-14 -15 -10 -8 3 -26 1 -40 -4 -30 -11 -32 0 -5 26 11 10 26 24 33 31 14 14
29 12 35 -5z m37 -42 c3 -6 -1 -7 -9 -4 -18 7 -21 14 -7 14 6 0 13 -4 16 -10z
m-179 -47 c-10 -10 -19 5 -10 18 6 11 8 11 12 0 2 -7 1 -15 -2 -18z m59 -22
c-3 -6 3 -14 12 -20 24 -14 7 -14 -18 0 -19 10 -18 29 2 29 6 0 8 -4 4 -9z
m392 -27 c-9 -9 -28 6 -21 18 4 6 10 6 17 -1 6 -6 8 -13 4 -17z m163 -20 c0
-8 -5 -12 -10 -9 -6 4 -8 11 -5 16 9 14 15 11 15 -7z m-1030 -4 c0 -5 -2 -10
-4 -10 -3 0 -8 5 -11 10 -3 6 -1 10 4 10 6 0 11 -4 11 -10z m407 -22 c-3 -7
-5 -2 -5 12 0 14 2 19 5 13 2 -7 2 -19 0 -25z m83 1 c0 -18 -18 -9 -23 12 -4
16 -3 18 9 8 8 -6 14 -15 14 -20z m336 -9 c8 0 14 -5 14 -11 0 -5 -4 -8 -8 -5
-4 2 -13 -4 -20 -14 -9 -15 -8 -19 5 -24 10 -4 14 -2 10 8 -10 25 19 7 31 -19
18 -39 -5 -124 -29 -109 -5 3 -9 10 -9 15 0 6 5 7 10 4 6 -3 10 -4 10 -1 0 2
3 13 6 23 6 15 4 16 -7 6 -18 -17 -29 -16 -29 2 0 8 -4 15 -10 15 -5 0 -10 7
-10 15 0 9 6 12 15 9 24 -10 18 4 -19 43 -33 35 -34 37 -18 59 17 23 17 23 31
4 7 -11 20 -20 27 -20z m-206 -14 c0 -5 -7 -3 -15 4 -8 7 -12 17 -9 22 7 10
24 -9 24 -26z m-59 -3 c12 -15 12 -16 -3 -10 -10 3 -18 2 -18 -3 0 -6 -4 -10
-9 -10 -5 0 -7 9 -4 20 6 24 16 25 34 3z m519 -6 c0 -8 -7 -14 -15 -14 -8 0
-15 6 -15 14 0 7 7 13 15 13 8 0 15 -6 15 -13z m74 -43 c26 -25 46 -47 43 -50
-2 -3 -28 18 -56 46 -65 62 -54 66 13 4z m-390 3 c2 -20 -1 -23 -17 -19 -17 4
-17 6 -4 14 10 5 14 15 10 26 -3 9 -3 14 1 10 4 -3 9 -17 10 -31z m326 -18 c0
-5 -9 -4 -19 3 -11 7 -17 16 -14 20 5 10 33 -10 33 -23z m-540 -13 c0 -26 5
-36 20 -41 11 -3 20 -10 20 -15 0 -5 -14 -2 -31 7 -22 11 -29 21 -27 37 1 11
-1 27 -5 34 -5 7 -3 12 7 12 12 0 16 -10 16 -34z m825 -18 c15 -17 21 -29 13
-25 -9 3 -21 0 -27 -6 -8 -8 -11 -5 -11 11 0 12 -4 22 -10 22 -5 0 -10 -4 -10
-10 0 -5 -4 -10 -10 -10 -14 0 -13 23 2 38 17 17 21 16 53 -20z m-615 1 c0 -6
-4 -7 -10 -4 -5 3 -10 11 -10 16 0 6 5 7 10 4 6 -3 10 -11 10 -16z m230 -59
c0 -33 -4 -60 -10 -60 -5 0 -10 7 -10 16 0 8 -7 22 -15 30 -13 14 -15 13 -15
-2 0 -10 7 -25 16 -35 21 -23 14 -48 -7 -26 -9 8 -20 12 -25 9 -13 -10 -16
-72 -4 -72 5 0 10 -7 10 -17 0 -14 -2 -14 -20 2 -23 21 -26 41 -7 48 7 4 3 8
-10 12 -13 4 -23 12 -23 17 0 6 -9 0 -19 -13 -19 -23 -20 -23 -26 -4 -4 11
-11 28 -16 38 -6 11 -6 17 2 17 6 0 13 -9 16 -20 3 -11 9 -20 13 -20 5 0 6 10
2 22 -3 14 -2 19 6 14 7 -4 15 0 18 8 3 9 10 13 15 10 16 -10 9 8 -8 21 -11 8
-12 14 -5 19 23 14 37 -42 18 -72 -7 -11 -4 -11 12 -1 12 7 22 25 24 39 2 15
12 29 26 35 12 5 22 18 22 27 0 10 5 18 10 18 6 0 10 -27 10 -60z m350 -4 c-6
-8 -19 -12 -27 -9 -14 6 -14 8 3 14 30 12 37 10 24 -5z m-604 -44 c1 -7 0 -8
-3 -2 -2 5 -9 8 -13 5 -5 -3 -12 0 -15 6 -5 7 -1 10 10 7 10 -1 20 -9 21 -16z
m-465 -29 c-8 -15 -10 -15 -11 -2 0 17 10 32 18 25 2 -3 -1 -13 -7 -23z m785
5 c4 -7 3 -8 -4 -4 -7 4 -12 2 -12 -4 0 -6 -5 -8 -11 -4 -8 4 -7 9 2 15 18 11
17 11 25 -3z m-254 -50 c-7 -7 -12 -8 -12 -2 0 6 3 14 7 17 3 4 9 5 12 2 2 -3
-1 -11 -7 -17z m68 8 c0 -14 -29 -31 -38 -21 -6 6 18 35 29 35 5 0 9 -6 9 -14z
m138 -22 c3 -16 1 -16 -7 -4 -12 16 -14 9 -11 -32 1 -16 -2 -28 -7 -28 -10 0
-16 68 -7 81 9 15 29 5 32 -17z m412 16 c0 -5 -2 -10 -4 -10 -3 0 -8 5 -11 10
-3 6 -1 10 4 10 6 0 11 -4 11 -10z m-647 -16 c3 -3 3 -13 0 -21 -5 -12 -7 -12
-14 -1 -15 23 -4 40 14 22z m517 -10 c0 -8 -4 -12 -10 -9 -5 3 -10 10 -10 16
0 5 5 9 10 9 6 0 10 -7 10 -16z m130 -4 c0 -5 -2 -10 -4 -10 -3 0 -8 5 -11 10
-3 6 -1 10 4 10 6 0 11 -4 11 -10z m-620 -10 c0 -5 -5 -10 -11 -10 -5 0 -7 5
-4 10 3 6 8 10 11 10 2 0 4 -4 4 -10z m62 -10 c48 -23 52 -24 43 -10 -3 6 -2
10 4 10 15 0 26 -23 13 -28 -6 -2 -9 -9 -6 -17 3 -7 1 -16 -5 -20 -6 -3 -11 0
-11 8 0 8 -9 22 -19 31 -19 17 -19 17 -14 -3 8 -29 -5 -26 -17 4 -5 14 -16 25
-25 25 -8 0 -15 5 -15 10 0 14 5 13 52 -10z m98 -4 c0 -31 -10 -56 -21 -56 -5
0 -9 7 -9 15 0 8 5 15 12 15 9 0 9 3 1 11 -12 12 -7 39 8 39 5 0 9 -11 9 -24z
m640 14 c0 -5 -2 -10 -4 -10 -3 0 -8 5 -11 10 -3 6 -1 10 4 10 6 0 11 -4 11
-10z m-473 -22 c-3 -8 -6 -5 -6 6 -1 11 2 17 5 13 3 -3 4 -12 1 -19z m524 5
c13 -15 12 -15 -11 -3 -34 17 -36 20 -18 20 9 0 22 -7 29 -17z m-916 -12 c-3
-5 13 -22 35 -38 34 -24 39 -33 38 -63 l-1 -35 -4 33 c-3 24 -8 32 -19 28 -8
-3 -14 1 -14 8 0 8 -11 21 -25 30 -25 16 -34 46 -14 46 5 0 8 -4 4 -9z m-97
-14 c8 -10 6 -13 -9 -13 -19 0 -24 7 -12 19 8 9 9 9 21 -6z m169 -6 c0 -11 -7
-17 -14 -14 -9 4 -9 8 0 19 16 17 16 17 14 -5z m553 -8 c0 -17 -15 -16 -30 1
-9 12 -8 15 9 13 12 -1 21 -7 21 -14z m-655 -3 c3 -6 -1 -7 -9 -4 -9 3 -16 2
-16 -4 0 -6 -15 -20 -33 -31 -40 -25 -64 -68 -41 -73 11 -2 6 -12 -18 -38 -18
-19 -40 -46 -49 -60 -9 -14 -20 -22 -23 -19 -4 3 14 29 39 57 25 28 41 53 36
56 -10 7 8 66 21 66 4 0 22 14 40 30 35 32 43 35 53 20z m325 2 c0 -10 -22
-32 -32 -32 -5 0 -3 9 4 20 13 20 28 27 28 12z m505 -23 c4 -11 4 -23 1 -26
-3 -3 -1 -14 5 -25 8 -15 6 -26 -6 -45 -9 -13 -19 -22 -23 -18 -4 3 -1 9 5 13
8 5 9 12 2 22 -8 11 -12 12 -16 2 -2 -6 -9 -9 -14 -6 -6 3 -6 11 2 20 6 7 9
20 6 28 -4 10 0 12 14 9 22 -6 26 16 7 35 -9 9 -9 12 -1 12 7 0 15 -9 18 -21z
m-658 -4 c9 -24 -1 -27 -15 -5 -8 13 -8 20 -2 20 6 0 13 -7 17 -15z m60 -27
c-3 -7 -5 -2 -5 12 0 14 2 19 5 13 2 -7 2 -19 0 -25z m106 11 c-4 -13 -9 -17
-15 -11 -11 11 -3 32 12 32 4 0 6 -9 3 -21z m-295 -28 c-7 -12 -16 -21 -21
-21 -8 0 -2 14 16 38 16 20 20 6 5 -17z m992 8 c0 -6 -4 -7 -10 -4 -5 3 -10
11 -10 16 0 6 5 7 10 4 6 -3 10 -11 10 -16z m-721 -14 c3 -17 2 -17 -13 -3
-19 20 -21 31 -3 26 6 -3 14 -13 16 -23z m-775 7 c2 -4 -4 -9 -15 -9 -11 -1
-17 2 -14 8 7 11 22 12 29 1z m856 -11 c5 -11 7 -22 2 -25 -4 -2 -12 7 -19 20
-13 28 2 33 17 5z m-230 -16 c0 -9 -7 -31 -15 -51 -8 -19 -11 -42 -8 -51 4
-11 2 -14 -8 -11 -8 3 -12 12 -11 19 2 8 9 35 15 62 11 45 27 64 27 32z m576
-17 l-6 -33 15 25 15 25 -4 -25 c-1 -14 -10 -26 -19 -28 -18 -4 -21 8 -11 46
10 34 17 26 10 -10z m263 -25 c0 -15 -2 -14 -9 3 -5 12 -13 25 -19 29 -6 3
-11 11 -11 17 0 7 9 2 20 -10 11 -12 20 -29 19 -39z m53 27 c-3 -18 0 -30 7
-30 13 0 10 -65 -4 -77 -4 -5 -5 5 -3 21 4 17 -1 40 -10 56 -14 23 -14 31 -3
44 18 21 18 21 13 -14z m-1512 0 c0 -5 -4 -10 -10 -10 -5 0 -10 5 -10 10 0 6
5 10 10 10 6 0 10 -4 10 -10z m653 -5 c-3 -9 -8 -14 -10 -11 -3 3 -2 9 2 15 9
16 15 13 8 -4z m1317 11 c0 -2 -7 -9 -15 -16 -13 -11 -14 -10 -9 4 5 14 24 23
24 12z m-1510 -28 c0 -19 -2 -20 -10 -8 -13 19 -13 30 0 30 6 0 10 -10 10 -22z
m109 8 c9 -10 8 -15 -3 -19 -10 -4 -14 0 -13 14 2 23 1 23 16 5z m233 -21 c-2
-14 -6 -25 -8 -25 -2 0 -4 11 -4 25 0 14 4 25 9 25 4 0 6 -11 3 -25z m448 1
c10 -13 10 -17 3 -12 -12 7 -17 -10 -16 -51 1 -7 -3 -13 -8 -13 -4 0 -6 17 -4
38 1 20 3 43 4 51 1 8 2 12 4 10 1 -2 9 -13 17 -23z m-293 -38 c-3 -8 -6 -5
-6 6 -1 11 2 17 5 13 3 -3 4 -12 1 -19z m-444 -3 c-3 -9 -8 -14 -10 -11 -3 3
-2 9 2 15 9 16 15 13 8 -4z m-78 -4 c3 -5 2 -12 -3 -15 -5 -3 -9 1 -9 9 0 17
3 19 12 6z m33 -16 c-3 -3 -9 2 -12 12 -6 14 -5 15 5 6 7 -7 10 -15 7 -18z
m172 -24 c0 -22 5 -43 10 -46 13 -8 13 -42 0 -50 -5 -3 -7 0 -4 9 3 8 -1 27
-9 43 -16 31 -20 83 -6 83 5 0 9 -18 9 -39z m247 17 c-3 -8 -6 -5 -6 6 -1 11
2 17 5 13 3 -3 4 -12 1 -19z m560 -10 c-3 -7 -5 -2 -5 12 0 14 2 19 5 13 2 -7
2 -19 0 -25z m-457 12 c0 -5 -5 -10 -11 -10 -5 0 -7 5 -4 10 3 6 8 10 11 10 2
0 4 -4 4 -10z m1220 -50 c0 -33 -3 -38 -17 -33 -13 5 -15 3 -9 -12 4 -11 4
-16 0 -12 -4 4 -13 2 -21 -5 -11 -8 -17 -8 -26 2 -10 10 -8 12 6 7 25 -9 34
20 13 41 -14 15 -16 15 -16 0 0 -8 -6 -21 -14 -27 -11 -9 -15 -7 -19 9 -3 11
-1 17 4 14 5 -3 13 3 17 13 10 25 33 27 39 3 3 -11 10 -20 15 -20 6 0 7 7 4
16 -5 14 8 44 20 44 2 0 4 -18 4 -40z m-1327 10 c-3 -12 -8 -19 -11 -16 -5 6
5 36 12 36 2 0 2 -9 -1 -20z m1067 5 c-14 -17 -30 -20 -30 -6 0 5 8 12 18 14
9 3 19 5 21 6 2 0 -2 -6 -9 -14z m-1853 -1 c-3 -3 -12 -4 -19 -1 -8 3 -5 6 6
6 11 1 17 -2 13 -5z m880 -1 c-4 -3 0 -15 10 -25 9 -10 12 -18 7 -18 -12 0
-34 36 -27 44 4 3 9 6 11 6 3 0 2 -3 -1 -7z m996 -17 c-10 -13 -20 -22 -22
-20 -4 4 29 44 36 44 2 0 -4 -11 -14 -24z m-1667 -10 c2 -14 1 -14 -3 0 -3 9
-11 13 -19 10 -9 -3 -12 -1 -9 5 10 15 30 5 31 -15z m1592 -25 c-7 -2 -17 -10
-21 -18 -5 -7 -12 -11 -17 -8 -5 3 -12 0 -16 -6 -4 -7 -3 -9 4 -5 6 3 13 2 16
-3 7 -10 -54 -45 -62 -36 -3 3 3 12 14 20 16 13 16 14 2 9 -12 -4 -18 -1 -18
9 0 8 11 18 25 21 14 4 31 17 36 30 11 22 12 23 30 8 14 -12 16 -18 7 -21z
m-1448 10 c0 -5 -7 -11 -14 -14 -10 -4 -13 -1 -9 9 6 15 23 19 23 5z m1105 -1
c3 -5 1 -10 -4 -10 -6 0 -11 5 -11 10 0 6 2 10 4 10 3 0 8 -4 11 -10z m225 -9
c0 -6 -4 -13 -10 -16 -5 -3 -10 1 -10 9 0 9 5 16 10 16 6 0 10 -4 10 -9z
m-1480 -39 c0 -15 -2 -15 -10 -2 -13 20 -13 33 0 25 6 -3 10 -14 10 -23z m200
8 c0 -5 -7 -7 -15 -4 -8 4 -15 8 -15 10 0 2 7 4 15 4 8 0 15 -4 15 -10z m1074
-5 c3 -9 0 -15 -9 -15 -8 0 -15 7 -15 15 0 8 4 15 9 15 5 0 11 -7 15 -15z
m430 0 c-4 -8 -11 -15 -16 -15 -6 0 -5 6 2 15 7 8 14 15 16 15 2 0 1 -7 -2
-15z m-1444 -5 c0 -5 -2 -10 -4 -10 -3 0 -8 5 -11 10 -3 6 -1 10 4 10 6 0 11
-4 11 -10z m1581 -4 c5 3 9 0 9 -5 0 -19 20 -12 21 7 1 16 2 16 6 -1 2 -9 9
-15 14 -12 5 4 9 1 9 -5 0 -7 -6 -10 -13 -7 -8 3 -20 -3 -27 -13 -16 -22 -32
-17 -23 7 4 10 2 14 -5 9 -14 -8 -25 10 -16 26 6 9 9 9 12 0 2 -7 8 -10 13 -6z
m-91 -11 c0 -2 -10 -10 -22 -16 -21 -11 -22 -11 -9 4 13 16 31 23 31 12z
m-1763 -27 c-3 -8 -6 -5 -6 6 -1 11 2 17 5 13 3 -3 4 -12 1 -19z m184 -1 c-10
-9 -11 -8 -5 6 3 10 9 15 12 12 3 -3 0 -11 -7 -18z m1519 7 c0 -8 -5 -12 -10
-9 -6 4 -8 11 -5 16 9 14 15 11 15 -7z m-1366 -10 c3 -8 2 -12 -4 -9 -6 3 -10
10 -10 16 0 14 7 11 14 -7z m966 2 c0 -3 -4 -8 -10 -11 -5 -3 -10 -1 -10 4 0
6 5 11 10 11 6 0 10 -2 10 -4z m214 -22 c5 -14 4 -15 -9 -4 -17 14 -19 20 -6
20 5 0 12 -7 15 -16z m156 -5 c0 -5 -5 -7 -11 -3 -8 5 -10 -3 -7 -25 3 -21 0
-31 -8 -31 -8 0 -11 6 -8 15 4 8 1 15 -6 15 -8 0 -10 -9 -6 -25 4 -14 2 -25
-4 -25 -5 0 -19 -9 -30 -20 -11 -11 -20 -16 -20 -11 0 6 9 16 20 24 13 9 18
20 14 30 -3 10 4 26 20 42 26 26 46 32 46 14z m100 5 c0 -12 -38 -53 -43 -48
-7 8 22 54 34 54 5 0 9 -3 9 -6z m-350 -14 c0 -5 -2 -10 -4 -10 -3 0 -8 5 -11
10 -3 6 -1 10 4 10 6 0 11 -4 11 -10z m294 -12 c-5 -7 -7 -21 -6 -30 2 -10 -2
-18 -7 -18 -6 0 -11 7 -11 16 0 20 20 57 27 51 3 -3 1 -12 -3 -19z m146 12 c0
-5 -5 -10 -11 -10 -5 0 -7 5 -4 10 3 6 8 10 11 10 2 0 4 -4 4 -10z m-1500 -4
c0 -2 -9 -6 -20 -9 -11 -3 -18 -1 -14 4 5 9 34 13 34 5z m1180 -14 c0 -5 -7
-9 -15 -9 -8 0 -12 4 -9 9 3 4 9 8 15 8 5 0 9 -4 9 -8z m-240 -12 c0 -5 -2
-10 -4 -10 -3 0 -8 5 -11 10 -3 6 -1 10 4 10 6 0 11 -4 11 -10z m41 -17 c12
-15 12 -16 -2 -11 -9 4 -22 1 -28 -5 -15 -15 -14 0 2 18 15 18 12 18 28 -2z
m130 -29 c-35 -15 -39 -9 -10 18 20 19 25 20 30 8 4 -10 -3 -19 -20 -26z m-77
11 c-4 -8 -8 -15 -10 -15 -2 0 -4 7 -4 15 0 8 4 15 10 15 5 0 7 -7 4 -15z
m166 1 c0 -8 -10 -16 -22 -18 -16 -2 -29 -17 -42 -45 -11 -24 -23 -43 -28 -43
-4 0 -4 8 2 18 5 9 14 29 20 44 5 17 19 30 35 34 14 3 25 10 25 15 0 5 2 9 5
9 3 0 5 -6 5 -14z m-215 -35 c-6 -5 -25 10 -25 20 0 5 6 4 14 -3 8 -7 12 -15
11 -17z m330 19 c-3 -5 -14 -10 -23 -9 -14 0 -13 2 3 9 27 11 27 11 20 0z
m-140 -40 c3 -5 1 -10 -4 -10 -6 0 -11 5 -11 10 0 6 2 10 4 10 3 0 8 -4 11
-10z m160 -69 c-14 -12 -16 -13 -9 -1 5 8 9 18 10 23 1 4 3 13 4 20 1 6 4 4 7
-7 3 -10 -3 -26 -12 -35z m-49 -46 c1 -8 -2 -15 -6 -15 -5 0 -8 9 -7 20 1 21
10 18 13 -5z m-188 -61 c-7 -15 -14 -21 -16 -15 -2 7 2 18 8 26 18 22 21 18 8
-11z m191 9 c-12 -15 -12 -16 5 -10 16 6 17 5 6 -8 -7 -8 -17 -15 -23 -15 -5
0 -16 -8 -24 -17 -8 -10 -5 1 7 25 11 23 25 42 31 42 7 0 6 -6 -2 -17z m-59 3
c0 -11 -19 -15 -25 -6 -3 5 1 10 9 10 9 0 16 -2 16 -4z m107 -18 c2 -17 0 -19
-7 -8 -5 8 -6 18 -4 22 8 12 10 10 11 -14z m89 -50 c3 -11 1 -25 -5 -31 -8 -8
-11 -8 -11 1 0 7 -7 12 -16 12 -8 0 -13 4 -9 9 3 5 1 12 -5 16 -17 10 -2 24
20 18 10 -3 22 -14 26 -25z m-63 -1 c7 3 9 3 5 -2 -4 -4 -3 -14 3 -22 9 -10 8
-13 -4 -13 -15 0 -28 21 -26 43 0 8 2 8 6 -1 2 -6 10 -9 16 -5z m-22 -44 c13
-16 12 -17 -3 -4 -10 7 -18 15 -18 17 0 8 8 3 21 -13z"/>
<path d="M4200 4475 c7 -9 15 -13 17 -11 7 7 -7 26 -19 26 -6 0 -6 -6 2 -15z"/>
<path d="M3178 4244 c-5 -4 -8 -16 -8 -28 0 -14 3 -17 11 -9 6 6 9 19 7 28 -1
9 -6 13 -10 9z"/>
<path d="M2970 4185 c-7 -9 -10 -18 -6 -22 3 -3 6 0 6 8 0 12 2 12 9 0 5 -7
14 -10 20 -7 17 11 13 26 -6 19 -11 -4 -14 -3 -9 5 10 17 1 15 -14 -3z"/>
<path d="M3310 4165 c0 -8 2 -15 4 -15 2 0 6 7 10 15 3 8 1 15 -4 15 -6 0 -10
-7 -10 -15z"/>
<path d="M2923 4128 c4 -12 1 -18 -9 -18 -8 0 -12 -5 -9 -10 5 -8 11 -8 19 -1
7 6 16 8 19 4 4 -3 7 -2 7 4 0 6 -8 17 -17 24 -15 12 -16 12 -10 -3z"/>
<path d="M3160 4125 c0 -17 -16 -20 -25 -5 -12 20 -26 10 -15 -10 9 -17 8 -20
-7 -20 -17 -1 -17 -1 -1 -11 14 -8 23 -5 40 13 25 26 33 48 18 48 -5 0 -10 -7
-10 -15z"/>
<path d="M2697 4033 c-4 -3 -7 -11 -7 -17 0 -6 5 -5 12 2 6 6 9 14 7 17 -3 3
-9 2 -12 -2z"/>
<path d="M3601 4104 c0 -11 3 -14 6 -6 3 7 2 16 -1 19 -3 4 -6 -2 -5 -13z"/>
<path d="M2880 3982 c0 -11 22 -32 32 -32 5 0 4 9 -2 20 -11 20 -30 28 -30 12z"/>
<path d="M3687 3313 c-4 -3 -7 -12 -7 -20 0 -11 4 -11 19 -1 11 7 17 16 15 20
-6 10 -18 10 -27 1z"/>
<path d="M3700 3142 c0 -12 19 -26 26 -19 2 2 -2 10 -11 17 -9 8 -15 8 -15 2z"/>
<path d="M3007 3383 c-10 -9 -9 -33 1 -33 4 0 8 9 8 20 0 23 0 22 -9 13z"/>
<path d="M3089 5959 c-10 -6 -4 -9 19 -9 17 0 32 2 32 4 0 9 -39 13 -51 5z"/>
<path d="M3241 5950 c-19 -11 5 -23 25 -12 14 8 14 10 2 15 -8 3 -21 2 -27 -3z"/>
<path d="M3185 5940 c-3 -5 3 -10 15 -10 12 0 18 5 15 10 -3 6 -10 10 -15 10
-5 0 -12 -4 -15 -10z"/>
<path d="M3108 5933 c7 -3 16 -2 19 1 4 3 -2 6 -13 5 -11 0 -14 -3 -6 -6z"/>
<path d="M3345 5923 c80 -19 77 -19 98 -28 9 -4 24 -5 32 -1 8 3 27 1 41 -4
14 -6 23 -6 20 -1 -3 4 -27 14 -53 20 -27 7 -62 16 -79 21 -17 6 -50 10 -75 9
l-44 -1 60 -15z"/>
<path d="M2985 5921 c-3 -5 8 -9 25 -9 40 1 50 18 11 18 -16 0 -32 -4 -36 -9z"/>
<path d="M3290 5881 c0 -6 4 -13 10 -16 6 -3 7 1 4 9 -7 18 -14 21 -14 7z"/>
<path d="M3325 5864 c0 -13 3 -24 8 -24 4 0 7 9 7 19 0 11 -3 22 -7 24 -5 3
-8 -6 -8 -19z"/>
<path d="M2375 5860 c3 -5 8 -10 11 -10 2 0 4 5 4 10 0 6 -5 10 -11 10 -5 0
-7 -4 -4 -10z"/>
<path d="M2871 5786 c-18 -21 5 -65 33 -66 6 0 0 9 -12 20 -25 24 -27 31 -10
48 7 7 9 12 6 12 -3 0 -11 -6 -17 -14z"/>
<path d="M2920 5779 c0 -5 5 -7 10 -4 6 3 10 8 10 11 0 2 -4 4 -10 4 -5 0 -10
-5 -10 -11z"/>
<path d="M2997 5754 c-8 -9 1 -24 14 -24 6 0 8 4 5 9 -4 5 0 12 6 14 9 4 8 6
-3 6 -9 1 -19 -2 -22 -5z"/>
<path d="M3154 5689 c-3 -6 -1 -16 6 -22 10 -9 11 -9 5 2 -4 8 -2 17 6 22 9 6
10 9 2 9 -6 0 -15 -5 -19 -11z"/>
<path d="M3500 5599 c0 -14 11 -24 38 -35 20 -8 46 -19 57 -24 11 -4 29 -10
40 -13 11 -3 29 -8 40 -13 18 -7 18 -6 6 9 -7 9 -22 17 -32 17 -10 0 -21 9
-24 20 -3 11 -11 20 -16 20 -13 0 -11 -18 4 -23 6 -2 9 -8 5 -12 -4 -4 -15 -2
-24 6 -9 7 -25 14 -36 16 -23 4 -49 33 -42 45 3 5 0 8 -5 8 -6 0 -11 -9 -11
-21z"/>
<path d="M3492 5563 c38 -82 41 -84 88 -81 58 5 63 21 11 38 -30 10 -49 12
-53 5 -7 -10 -12 -1 -9 17 0 4 -9 12 -20 19 -12 6 -20 7 -17 2z"/>
<path d="M3440 5535 c0 -8 9 -15 19 -15 11 0 21 -5 23 -12 3 -7 7 -8 10 -2 4
5 -7 17 -23 26 -24 14 -29 15 -29 3z"/>
<path d="M3640 5385 c7 -8 16 -12 21 -9 13 8 1 24 -18 24 -13 0 -13 -3 -3 -15z"/>
<path d="M3740 5306 c0 -2 8 -10 18 -17 15 -13 16 -12 3 4 -13 16 -21 21 -21
13z"/>
<path d="M3980 5290 c0 -5 5 -10 11 -10 5 0 7 5 4 10 -3 6 -8 10 -11 10 -2 0
-4 -4 -4 -10z"/>
<path d="M3727 5274 c-3 -3 -3 -12 0 -20 4 -10 8 -11 18 -1 7 7 11 15 8 20 -5
9 -17 9 -26 1z"/>
<path d="M3770 5220 c20 -13 33 -13 25 0 -3 6 -14 10 -23 10 -15 0 -15 -2 -2
-10z"/>
<path d="M3716 5204 c-4 -10 -1 -14 6 -12 15 5 23 28 10 28 -5 0 -13 -7 -16
-16z"/>
<path d="M3628 5183 c-10 -2 -18 -9 -18 -14 0 -14 16 -11 30 6 7 8 11 14 9 14
-2 -1 -12 -3 -21 -6z"/>
<path d="M3690 5156 c0 -2 7 -7 16 -10 8 -3 12 -2 9 4 -6 10 -25 14 -25 6z"/>
<path d="M3645 5140 c3 -5 11 -10 16 -10 6 0 7 5 4 10 -3 6 -11 10 -16 10 -6
0 -7 -4 -4 -10z"/>
<path d="M3745 5120 c3 -5 10 -10 16 -10 5 0 9 5 9 10 0 6 -7 10 -16 10 -8 0
-12 -4 -9 -10z"/>
<path d="M3790 5100 c-14 -4 -20 -9 -15 -9 6 -1 3 -6 -5 -11 -12 -8 -11 -10 6
-10 12 0 31 -9 44 -20 13 -11 35 -20 49 -20 18 0 22 -3 13 -9 -17 -10 6 -21
46 -21 l25 0 -21 23 c-12 12 -34 24 -49 25 -15 1 -29 6 -31 12 -2 5 -9 7 -16
4 -7 -3 -19 2 -26 11 -11 13 -10 15 2 10 9 -4 18 1 21 9 7 17 -3 19 -43 6z"/>
<path d="M4105 4990 c4 -6 11 -8 16 -5 14 9 11 15 -7 15 -8 0 -12 -5 -9 -10z"/>
<path d="M4130 4961 c0 -5 7 -14 15 -21 16 -14 18 -10 9 14 -6 17 -24 22 -24
7z"/>
<path d="M4085 4949 c-4 -6 -13 -8 -21 -5 -8 3 -14 1 -14 -4 0 -11 40 -34 40
-23 0 4 4 3 8 -4 5 -8 12 -8 26 3 11 7 16 17 11 21 -4 5 -10 3 -12 -4 -5 -13
-33 -6 -33 7 0 5 8 11 18 13 15 4 15 5 0 6 -9 0 -20 -4 -23 -10z"/>
<path d="M4205 4860 c3 -5 8 -10 11 -10 2 0 4 5 4 10 0 6 -5 10 -11 10 -5 0
-7 -4 -4 -10z"/>
<path d="M4270 4832 c0 -5 7 -17 16 -28 14 -17 15 -17 10 -1 -3 10 -6 23 -6
28 0 5 -4 9 -10 9 -5 0 -10 -4 -10 -8z"/>
<path d="M4300 4761 c0 -5 5 -13 10 -16 6 -3 10 -2 10 4 0 5 -4 13 -10 16 -5
3 -10 2 -10 -4z"/>
<path d="M4315 4720 c3 -5 8 -10 11 -10 2 0 4 5 4 10 0 6 -5 10 -11 10 -5 0
-7 -4 -4 -10z"/>
<path d="M4590 4593 c0 -6 8 -17 18 -24 16 -13 16 -13 2 6 -8 11 -16 22 -17
24 -2 2 -3 0 -3 -6z"/>
<path d="M4480 4579 c0 -5 -5 -7 -11 -3 -9 5 -10 -1 -5 -22 4 -16 12 -30 17
-32 5 -2 9 -10 9 -18 0 -8 4 -14 10 -14 10 0 3 27 -12 47 -5 7 -7 21 -3 33 3
11 4 20 1 20 -3 0 -6 -5 -6 -11z"/>
<path d="M4526 4525 c-3 -9 -6 -26 -5 -38 1 -14 4 -9 9 13 9 37 7 52 -4 25z"/>
<path d="M4700 4460 c-9 -6 -10 -10 -3 -10 6 0 15 5 18 10 8 12 4 12 -15 0z"/>
<path d="M4540 4421 c0 -13 29 -35 37 -27 3 3 1 6 -5 6 -7 0 -12 7 -12 15 0 8
-4 15 -10 15 -5 0 -10 -4 -10 -9z"/>
<path d="M4600 4386 c6 -9 9 -20 5 -26 -3 -5 -1 -10 4 -10 6 0 11 -5 11 -11 0
-6 -6 -9 -12 -7 -7 3 -18 -7 -26 -20 -25 -50 7 -35 40 18 22 36 17 62 -11 67
-20 3 -22 1 -11 -11z"/>
<path d="M4525 4381 c-3 -6 -11 -9 -16 -6 -5 4 -9 1 -9 -4 0 -6 6 -11 14 -11
16 0 31 18 23 26 -3 3 -8 0 -12 -5z"/>
<path d="M4695 4370 c-3 -5 -1 -10 4 -10 6 0 11 5 11 10 0 6 -2 10 -4 10 -3 0
-8 -4 -11 -10z"/>
<path d="M4533 4345 c-3 -9 -3 -19 1 -22 3 -4 6 -1 6 5 0 16 27 15 33 0 4 -8
6 -7 6 3 1 9 -6 20 -15 23 -22 8 -24 8 -31 -9z"/>
<path d="M5061 4270 c0 -8 21 -37 47 -65 25 -27 38 -37 29 -22 -10 16 -26 36
-35 46 -9 10 -22 26 -29 37 -9 14 -12 15 -12 4z"/>
<path d="M4610 4231 c0 -5 5 -13 10 -16 6 -3 10 -2 10 4 0 5 -4 13 -10 16 -5
3 -10 2 -10 -4z"/>
<path d="M4400 4205 c-7 -9 -8 -15 -2 -15 5 0 12 7 16 15 3 8 4 15 2 15 -2 0
-9 -7 -16 -15z"/>
<path d="M4570 4091 c0 -5 5 -13 10 -16 6 -3 10 -2 10 4 0 5 -4 13 -10 16 -5
3 -10 2 -10 -4z"/>
<path d="M4425 4040 c3 -5 8 -10 11 -10 2 0 4 5 4 10 0 6 -5 10 -11 10 -5 0
-7 -4 -4 -10z"/>
<path d="M4475 4020 c-3 -6 1 -7 9 -4 18 7 21 14 7 14 -6 0 -13 -4 -16 -10z"/>
<path d="M4480 3986 c0 -2 7 -9 15 -16 9 -7 15 -8 15 -2 0 5 -7 12 -15 16 -8
3 -15 4 -15 2z"/>
<path d="M4446 3965 c25 -19 40 -19 24 0 -7 8 -20 15 -28 15 -13 0 -12 -3 4
-15z"/>
<path d="M4500 3861 c0 -5 5 -13 10 -16 6 -3 10 -2 10 4 0 5 -4 13 -10 16 -5
3 -10 2 -10 -4z"/>
<path d="M5150 3851 c0 -5 5 -13 10 -16 6 -3 10 -2 10 4 0 5 -4 13 -10 16 -5
3 -10 2 -10 -4z"/>
<path d="M4440 3820 c0 -11 48 -25 57 -16 4 3 -3 6 -15 6 -12 0 -22 5 -22 10
0 6 -4 10 -10 10 -5 0 -10 -4 -10 -10z"/>
<path d="M4416 3714 c-8 -21 -8 -24 3 -24 12 0 22 28 12 35 -5 3 -12 -2 -15
-11z"/>
<path d="M4580 3710 c0 -5 5 -10 11 -10 5 0 7 5 4 10 -3 6 -8 10 -11 10 -2 0
-4 -4 -4 -10z"/>
<path d="M4440 3673 c-13 -15 -12 -16 3 -10 12 4 17 1 17 -11 1 -16 1 -16 11
1 10 17 5 37 -9 37 -4 -1 -14 -8 -22 -17z"/>
<path d="M4718 3684 c-9 -8 9 -44 22 -44 6 0 10 7 10 15 0 8 5 15 10 15 6 0
10 5 10 10 0 7 -6 7 -19 0 -13 -7 -20 -7 -23 1 -2 6 -7 7 -10 3z"/>
<path d="M4590 3664 c0 -8 6 -22 14 -29 12 -12 15 -12 19 5 5 18 -9 40 -25 40
-4 0 -8 -7 -8 -16z"/>
<path d="M4680 3653 c0 -13 5 -23 10 -23 13 0 13 11 0 30 -8 12 -10 11 -10 -7z"/>
<path d="M4651 3644 c0 -11 3 -14 6 -6 3 7 2 16 -1 19 -3 4 -6 -2 -5 -13z"/>
<path d="M4706 3614 c-9 -24 -7 -27 9 -10 17 17 19 26 6 26 -5 0 -12 -7 -15
-16z"/>
<path d="M4712 3568 c2 -6 10 -14 16 -16 7 -2 10 2 6 12 -7 18 -28 22 -22 4z"/>
<path d="M4735 3534 c-9 -9 -13 -19 -10 -22 3 -3 11 3 19 13 8 11 19 16 30 12
10 -4 15 -3 11 3 -9 15 -32 12 -50 -6z"/>
<path d="M5182 3428 c5 -15 28 -23 28 -10 0 5 -7 13 -16 16 -10 4 -14 1 -12
-6z"/>
<path d="M4680 3400 c0 -5 5 -10 10 -10 6 0 10 5 10 10 0 6 -4 10 -10 10 -5 0
-10 -4 -10 -10z"/>
<path d="M4750 3396 c0 -9 7 -16 16 -16 17 0 14 22 -4 28 -7 2 -12 -3 -12 -12z"/>
<path d="M4650 3355 c-7 -8 -8 -15 -2 -15 5 0 15 7 22 15 7 8 8 15 2 15 -5 0
-15 -7 -22 -15z"/>
<path d="M5186 3346 c3 -9 11 -16 16 -16 13 0 5 23 -10 28 -7 2 -10 -2 -6 -12z"/>
<path d="M4690 3286 c0 -8 5 -16 10 -18 13 -4 16 -35 6 -65 -5 -16 -3 -23 6
-23 13 0 14 7 10 81 -2 27 -32 50 -32 25z"/>
<path d="M5150 3264 c0 -8 5 -12 10 -9 6 4 8 11 5 16 -9 14 -15 11 -15 -7z"/>
<path d="M5350 3241 c0 -6 5 -13 10 -16 6 -3 10 1 10 9 0 9 -4 16 -10 16 -5 0
-10 -4 -10 -9z"/>
<path d="M5030 3211 c0 -5 5 -13 10 -16 6 -3 10 -2 10 4 0 5 -4 13 -10 16 -5
3 -10 2 -10 -4z"/>
<path d="M5180 3174 c0 -11 7 -29 15 -40 19 -25 19 -15 0 27 -10 25 -14 29
-15 13z"/>
<path d="M5367 3167 c-11 -29 -9 -53 4 -40 6 6 9 21 7 34 -3 21 -4 22 -11 6z"/>
<path d="M3955 3150 c-3 -5 -1 -10 4 -10 6 0 11 5 11 10 0 6 -2 10 -4 10 -3 0
-8 -4 -11 -10z"/>
<path d="M4713 3153 c-7 -3 -13 -12 -13 -21 0 -15 2 -15 17 1 18 18 16 27 -4
20z"/>
<path d="M4940 3151 c0 -6 5 -13 10 -16 6 -3 10 1 10 9 0 9 -4 16 -10 16 -5 0
-10 -4 -10 -9z"/>
<path d="M4733 3103 c-15 -5 -17 -23 -4 -23 5 0 11 7 15 15 3 8 4 15 3 14 -1
0 -8 -3 -14 -6z"/>
<path d="M5120 3095 c0 -16 -2 -17 -10 -5 -12 19 -25 6 -15 -17 4 -10 7 -28 6
-40 -2 -16 3 -23 14 -23 13 0 16 6 12 22 -4 12 -1 28 4 34 7 9 7 19 0 31 -10
17 -10 17 -11 -2z"/>
<path d="M4980 3048 c0 -19 10 -44 21 -58 l21 -25 -17 29 c-9 15 -15 39 -12
52 2 14 0 27 -4 30 -5 3 -9 -10 -9 -28z"/>
<path d="M5030 3071 c0 -5 5 -13 10 -16 6 -3 10 -2 10 4 0 5 -4 13 -10 16 -5
3 -10 2 -10 -4z"/>
<path d="M5436 3055 c4 -8 10 -12 15 -9 14 8 10 24 -6 24 -9 0 -12 -6 -9 -15z"/>
<path d="M4054 3042 c-16 -10 -36 -52 -26 -52 6 0 12 9 15 21 3 12 10 18 15
15 6 -3 12 1 16 9 6 16 -2 19 -20 7z"/>
<path d="M4250 3036 c0 -2 7 -7 16 -10 8 -3 12 -2 9 4 -6 10 -25 14 -25 6z"/>
<path d="M4354 3031 c4 -5 0 -11 -6 -14 -7 -2 -10 -8 -6 -12 4 -4 11 -4 17 0
14 8 14 35 0 35 -5 0 -8 -4 -5 -9z"/>
<path d="M4545 3030 c-3 -5 -2 -10 4 -10 5 0 13 5 16 10 3 6 2 10 -4 10 -5 0
-13 -4 -16 -10z"/>
<path d="M5230 3016 c0 -9 7 -16 16 -16 9 0 14 5 12 12 -6 18 -28 21 -28 4z"/>
<path d="M5320 3022 c0 -12 19 -26 26 -19 2 2 -2 10 -11 17 -9 8 -15 8 -15 2z"/>
<path d="M5440 3010 c0 -5 5 -10 10 -10 6 0 10 5 10 10 0 6 -4 10 -10 10 -5 0
-10 -4 -10 -10z"/>
<path d="M3940 3001 c0 -5 5 -13 10 -16 6 -3 10 -2 10 4 0 5 -4 13 -10 16 -5
3 -10 2 -10 -4z"/>
<path d="M3976 2987 c3 -10 9 -15 12 -12 3 3 0 11 -7 18 -10 9 -11 8 -5 -6z"/>
<path d="M4457 2994 c-3 -3 -3 -13 0 -21 5 -12 7 -12 14 -1 15 23 4 40 -14 22z"/>
<path d="M4595 2990 c-19 -7 -19 -8 -2 -15 19 -8 31 -2 26 13 -2 5 -13 6 -24
2z"/>
<path d="M5510 2986 c0 -9 5 -16 10 -16 6 0 10 4 10 9 0 6 -4 13 -10 16 -5 3
-10 -1 -10 -9z"/>
<path d="M4230 2975 c-7 -8 -17 -12 -22 -9 -6 4 -4 -4 3 -17 11 -20 14 -21 17
-7 2 9 12 20 23 23 11 4 17 11 14 16 -9 13 -21 11 -35 -6z"/>
<path d="M4540 2981 c0 -13 29 -35 37 -27 3 3 1 6 -5 6 -6 0 -9 7 -6 15 4 9 0
15 -10 15 -9 0 -16 -4 -16 -9z"/>
<path d="M4622 2970 c-13 -11 -21 -24 -18 -29 12 -18 47 -19 69 -1 22 19 22
19 2 34 -25 19 -25 19 -53 -4z m48 -10 c0 -5 -4 -10 -10 -10 -5 0 -10 5 -10
10 0 6 5 10 10 10 6 0 10 -4 10 -10z"/>
<path d="M4717 2963 c3 -7 9 -10 14 -7 14 8 11 21 -5 21 -8 0 -12 -6 -9 -14z"/>
<path d="M4939 2963 c-13 -16 -12 -17 4 -4 16 13 21 21 13 21 -2 0 -10 -8 -17
-17z"/>
<path d="M5131 2944 c-20 -34 -21 -66 -1 -34 6 8 10 11 11 5 1 -5 5 6 9 25 11
47 7 48 -19 4z"/>
<path d="M3940 2966 c0 -4 7 -14 15 -22 8 -9 15 -11 15 -6 0 5 -7 15 -15 22
-8 7 -15 9 -15 6z"/>
<path d="M4775 2953 c10 -25 22 -62 33 -103 9 -31 10 -29 8 24 -1 35 -7 61
-14 64 -7 2 -12 10 -12 18 0 8 -5 14 -11 14 -7 0 -8 -7 -4 -17z"/>
<path d="M4880 2959 c0 -9 -11 -22 -25 -29 -14 -7 -25 -18 -25 -23 0 -6 8 -3
18 5 9 8 25 19 34 24 12 7 14 14 8 24 -8 13 -10 13 -10 -1z"/>
<path d="M5230 2960 c0 -5 4 -10 9 -10 6 0 13 5 16 10 3 6 -1 10 -9 10 -9 0
-16 -4 -16 -10z"/>
<path d="M3993 2936 c0 -14 3 -26 8 -26 4 0 10 -8 12 -17 2 -10 3 -3 1 16 -4
42 -21 63 -21 27z"/>
<path d="M5430 2949 c0 -5 5 -7 10 -4 6 3 10 8 10 11 0 2 -4 4 -10 4 -5 0 -10
-5 -10 -11z"/>
<path d="M5510 2941 c0 -6 5 -13 10 -16 6 -3 10 1 10 9 0 9 -4 16 -10 16 -5 0
-10 -4 -10 -9z"/>
<path d="M4750 2931 c0 -7 -6 -11 -13 -8 -6 2 -19 -5 -28 -17 -15 -19 -14 -23
3 -40 10 -11 18 -14 18 -8 0 6 -4 14 -10 17 -5 3 -10 11 -10 16 0 6 4 8 9 5 5
-3 14 1 21 9 11 13 14 13 27 -2 13 -16 13 -15 2 7 -15 32 -19 36 -19 21z"/>
<path d="M4960 2930 c0 -5 5 -10 10 -10 6 0 10 5 10 10 0 6 -4 10 -10 10 -5 0
-10 -4 -10 -10z"/>
<path d="M5090 2930 c0 -5 5 -10 10 -10 6 0 10 5 10 10 0 6 -4 10 -10 10 -5 0
-10 -4 -10 -10z"/>
<path d="M5320 2929 c0 -5 5 -7 10 -4 6 3 10 8 10 11 0 2 -4 4 -10 4 -5 0 -10
-5 -10 -11z"/>
<path d="M5035 2920 c3 -5 8 -10 11 -10 2 0 4 5 4 10 0 6 -5 10 -11 10 -5 0
-7 -4 -4 -10z"/>
<path d="M4590 2905 c0 -8 4 -15 10 -15 5 0 7 7 4 15 -4 8 -8 15 -10 15 -2 0
-4 -7 -4 -15z"/>
<path d="M4926 2895 c8 -37 13 -45 24 -45 5 0 4 12 -2 28 -18 41 -30 51 -22
17z"/>
<path d="M5340 2900 c0 -11 2 -20 4 -20 2 0 6 9 9 20 3 11 1 20 -4 20 -5 0 -9
-9 -9 -20z"/>
<path d="M4272 2899 c2 -7 10 -15 17 -17 8 -3 12 1 9 9 -2 7 -10 15 -17 17 -8
3 -12 -1 -9 -9z"/>
<path d="M5053 2899 c-7 -7 -8 -21 -1 -46 7 -25 6 -38 -4 -50 -12 -15 -11 -15
10 -2 15 9 21 20 18 34 -3 11 -1 27 4 35 7 10 10 11 10 3 0 -7 5 -13 11 -13 6
0 9 10 7 23 -3 25 -36 35 -55 16z"/>
<path d="M4875 2880 c-4 -6 -3 -16 3 -22 6 -6 12 -6 17 2 4 6 3 16 -3 22 -6 6
-12 6 -17 -2z"/>
<path d="M4737 2860 c-3 -13 -10 -18 -21 -14 -12 5 -15 2 -10 -10 8 -21 21
-20 33 1 14 26 21 12 24 -46 2 -55 17 -72 17 -20 0 37 -20 109 -30 109 -4 0
-10 -9 -13 -20z"/>
<path d="M4906 2841 c-5 -8 -2 -20 8 -29 17 -17 19 -9 7 22 -6 15 -10 16 -15
7z"/>
<path d="M4882 2820 c0 -14 2 -19 5 -12 2 6 2 18 0 25 -3 6 -5 1 -5 -13z"/>
<path d="M5100 2836 c0 -18 25 -66 36 -70 13 -5 14 0 9 27 -4 17 -9 35 -12 40
-4 7 -33 10 -33 3z"/>
<path d="M4270 2826 c0 -2 7 -9 15 -16 12 -10 15 -10 15 4 0 9 -7 16 -15 16
-8 0 -15 -2 -15 -4z"/>
<path d="M5014 2805 c-4 -8 -10 -12 -15 -9 -5 3 -9 -6 -9 -20 0 -34 16 -33 25
1 3 15 12 31 18 35 9 6 9 8 -1 8 -7 0 -15 -7 -18 -15z"/>
<path d="M4896 2784 c-4 -9 -4 -19 -1 -22 2 -3 7 3 11 12 4 9 4 19 1 22 -2 3
-7 -3 -11 -12z"/>
<path d="M4806 2766 c2 -11 -2 -26 -8 -33 -6 -7 -6 -13 -2 -13 5 0 15 9 22 20
7 11 8 20 3 20 -5 0 -11 6 -14 13 -2 6 -3 3 -1 -7z"/>
<path d="M4840 2776 c0 -8 4 -17 9 -20 5 -4 7 3 4 14 -6 23 -13 26 -13 6z"/>
<path d="M5371 2774 c0 -11 3 -14 6 -6 3 7 2 16 -1 19 -3 4 -6 -2 -5 -13z"/>
<path d="M5515 2760 c3 -5 8 -10 11 -10 2 0 4 5 4 10 0 6 -5 10 -11 10 -5 0
-7 -4 -4 -10z"/>
<path d="M5647 2745 c-8 -20 -4 -29 11 -24 5 2 6 13 2 23 -6 19 -7 19 -13 1z"/>
<path d="M5565 2720 c-7 -12 2 -30 16 -30 12 0 12 27 0 35 -5 3 -12 1 -16 -5z"/>
<path d="M5662 2678 c-15 -15 -15 -35 -2 -43 6 -4 7 1 3 10 -3 10 0 21 8 25 7
5 11 11 8 14 -3 3 -11 0 -17 -6z"/>
<path d="M5775 2670 c3 -5 8 -10 11 -10 2 0 4 5 4 10 0 6 -5 10 -11 10 -5 0
-7 -4 -4 -10z"/>
<path d="M5540 2651 c0 -6 5 -13 10 -16 6 -3 8 -18 6 -32 -4 -19 -2 -23 10
-19 9 3 18 6 20 6 2 0 4 5 4 11 0 5 -5 7 -12 3 -7 -5 -10 -2 -6 7 2 8 -4 22
-14 32 -10 9 -18 13 -18 8z"/>
<path d="M4796 2632 c-3 -5 -1 -22 4 -38 8 -28 8 -28 7 8 -2 40 -3 43 -11 30z"/>
<path d="M5592 2623 c2 -9 8 -18 15 -20 7 -3 9 3 6 16 -6 25 -26 28 -21 4z"/>
<path d="M5156 2611 c-20 -22 -14 -61 9 -61 11 0 12 6 5 24 -6 17 -5 26 2 28
6 2 9 10 7 17 -3 9 -10 7 -23 -8z"/>
<path d="M5520 2589 c0 -5 5 -7 10 -4 6 3 10 8 10 11 0 2 -4 4 -10 4 -5 0 -10
-5 -10 -11z"/>
<path d="M5630 2596 c0 -2 8 -10 18 -17 15 -13 16 -12 3 4 -13 16 -21 21 -21
13z"/>
<path d="M5780 2571 c0 -12 4 -19 10 -16 6 3 10 1 10 -4 0 -17 -18 -13 -30 7
-10 16 -11 16 -8 -2 2 -10 13 -25 24 -33 20 -13 22 -12 26 9 3 14 -3 31 -14
42 -18 19 -18 19 -18 -3z"/>
<path d="M4522 2513 c5 -25 28 -28 28 -4 0 12 -6 21 -16 21 -9 0 -14 -7 -12
-17z"/>
<path d="M5527 2523 c-4 -3 -7 -15 -7 -26 0 -15 -3 -17 -13 -9 -9 8 -16 6 -24
-7 -10 -16 -8 -17 14 -13 15 3 23 1 20 -4 -3 -6 3 -10 13 -10 15 0 16 4 9 19
-6 10 -7 27 -4 37 7 20 3 25 -8 13z"/>
<path d="M5466 2511 c-4 -7 -5 -15 -2 -18 9 -9 19 4 14 18 -4 11 -6 11 -12 0z"/>
<path d="M5764 2468 c6 -42 6 -43 -7 -13 -9 19 -16 25 -21 17 -4 -7 -4 -17 0
-24 5 -7 3 -8 -6 -3 -8 5 -11 3 -8 -6 3 -8 12 -13 19 -11 8 2 1 -10 -15 -27
-23 -24 -27 -34 -18 -43 7 -7 12 -8 12 -2 0 5 5 2 11 -6 8 -12 9 -10 4 7 -5
19 -2 22 26 20 24 -2 33 2 35 17 2 14 0 16 -9 7 -14 -14 -50 -15 -42 -1 4 6
10 8 15 5 4 -3 17 11 29 31 23 38 15 74 -15 74 -13 0 -15 -8 -10 -42z"/>
<path d="M5183 2468 c-2 -16 1 -18 10 -9 7 7 8 14 1 21 -6 6 -10 2 -11 -12z"/>
<path d="M4533 2465 c-3 -9 -3 -18 0 -21 9 -9 27 6 27 22 0 19 -19 18 -27 -1z"/>
<path d="M5305 2470 c-8 -13 15 -24 27 -12 6 6 4 11 -6 15 -8 3 -18 2 -21 -3z"/>
<path d="M5370 2469 c0 -5 5 -7 10 -4 6 3 10 8 10 11 0 2 -4 4 -10 4 -5 0 -10
-5 -10 -11z"/>
<path d="M5831 2460 c0 -8 4 -22 9 -30 12 -18 12 -2 0 25 -6 13 -9 15 -9 5z"/>
<path d="M5200 2425 c0 -8 4 -15 8 -15 5 0 9 7 9 15 0 8 -4 15 -9 15 -4 0 -8
-7 -8 -15z"/>
<path d="M5630 2420 c6 -11 12 -20 14 -20 2 0 2 9 -1 20 -3 11 -9 20 -15 20
-5 0 -4 -9 2 -20z"/>
<path d="M5600 2395 c-8 -9 -8 -15 -2 -15 12 0 26 19 19 26 -2 2 -10 -2 -17
-11z"/>
<path d="M5216 2391 c-3 -5 1 -11 9 -15 8 -3 15 -1 15 4 0 13 -18 22 -24 11z"/>
<path d="M5860 2356 c0 -9 5 -16 10 -16 6 0 10 4 10 9 0 6 -4 13 -10 16 -5 3
-10 -1 -10 -9z"/>
<path d="M5721 2314 c-10 -12 -10 -19 -2 -27 8 -8 11 -7 11 6 0 9 7 17 16 17
8 0 12 5 9 10 -8 14 -18 12 -34 -6z"/>
<path d="M5202 2280 c0 -14 2 -19 5 -12 2 6 2 18 0 25 -3 6 -5 1 -5 -13z"/>
<path d="M5340 2230 c0 -5 5 -10 10 -10 6 0 10 5 10 10 0 6 -4 10 -10 10 -5 0
-10 -4 -10 -10z"/>
<path d="M5243 2210 c5 -31 17 -36 17 -7 0 15 -4 27 -10 27 -5 0 -9 -9 -7 -20z"/>
<path d="M5200 2150 c0 -5 5 -10 10 -10 6 0 10 5 10 10 0 6 -4 10 -10 10 -5 0
-10 -4 -10 -10z"/>
<path d="M5800 2105 c1 -26 2 -28 11 -12 8 14 8 22 0 30 -8 8 -11 3 -11 -18z"/>
<path d="M5737 1993 c-4 -3 -7 -11 -7 -17 0 -6 5 -5 12 2 6 6 9 14 7 17 -3 3
-9 2 -12 -2z"/>
<path d="M5620 1919 c0 -5 5 -7 10 -4 6 3 10 8 10 11 0 2 -4 4 -10 4 -5 0 -10
-5 -10 -11z"/>
<path d="M5720 1910 c0 -11 2 -20 4 -20 2 0 6 9 9 20 3 11 1 20 -4 20 -5 0 -9
-9 -9 -20z"/>
<path d="M5685 1900 c-3 -5 1 -10 9 -10 9 0 16 5 16 10 0 6 -4 10 -9 10 -6 0
-13 -4 -16 -10z"/>
<path d="M5629 1838 c8 -10 20 -18 25 -18 5 0 6 3 3 7 -4 3 -2 11 3 18 7 8 2
12 -19 12 -26 0 -27 -2 -12 -19z"/>
<path d="M5581 1804 c0 -11 3 -14 6 -6 3 7 2 16 -1 19 -3 4 -6 -2 -5 -13z"/>
<path d="M5655 1751 c-3 -5 -1 -12 5 -16 5 -3 10 1 10 9 0 18 -6 21 -15 7z"/>
</g>
</svg>
